<svg xmlns="http://www.w3.org/2000/svg" viewBox="0 0 48 51"><defs><style>.cls-1{opacity:0.18;}.cls-2{fill:#fff;}</style></defs><g id="Слой_2" data-name="Слой 2"><g id="Ranking"><g class="cls-1"><path d="M48,45.4V15a.68.68,0,0,0-.69-.67H34.54a.68.68,0,0,0-.69.67V45.4a.67.67,0,0,0,.69.66H47.31A.67.67,0,0,0,48,45.4Z"/><path d="M16.93,3.67V45.4a.68.68,0,0,0,.69.66H30.38a.68.68,0,0,0,.69-.66V3.67a.68.68,0,0,0-.7-.67H17.62A.68.68,0,0,0,16.93,3.67Z"/><rect x="0.28" y="48.73" width="47.72" height="2.27" rx="0.5"/><path d="M14.15,45.4V26.33a.67.67,0,0,0-.69-.66H.7a.68.68,0,0,0-.7.67V45.4a.67.67,0,0,0,.69.66H13.46A.67.67,0,0,0,14.15,45.4Z"/></g><path class="cls-2" d="M48,42.4V12a.68.68,0,0,0-.69-.67H34.54a.68.68,0,0,0-.69.67V42.4a.67.67,0,0,0,.69.66H47.31A.67.67,0,0,0,48,42.4Z"/><path class="cls-2" d="M16.93.67V42.4a.68.68,0,0,0,.69.66H30.38a.68.68,0,0,0,.69-.66V.67a.68.68,0,0,0-.7-.67H17.62A.68.68,0,0,0,16.93.67Z"/><rect class="cls-2" x="0.28" y="45.73" width="47.72" height="2.27" rx="0.5"/><path class="cls-2" d="M14.15,42.4V23.33a.67.67,0,0,0-.69-.66H.7a.68.68,0,0,0-.7.67V42.4a.67.67,0,0,0,.69.66H13.46A.67.67,0,0,0,14.15,42.4Z"/></g></g></svg>