<svg xmlns="http://www.w3.org/2000/svg" viewBox="0 0 82 87"><defs><style>.cls-1{opacity:0.18;}.cls-2{fill:#fff;}</style></defs><g id="Слой_2" data-name="Слой 2"><g id="Ranking"><g class="cls-1"><path d="M73.79,22.67a39.74,39.74,0,0,0-62.67-.76L9.34,11.79A2,2,0,0,0,7,10.14l-5.32.94a2,2,0,0,0-1.3.84A2,2,0,0,0,0,13.44l4.23,24a2,2,0,0,0,2,1.68,2.07,2.07,0,0,0,.35,0l23.94-4.25a2,2,0,0,0,1.65-2.35l-.94-5.34a2.09,2.09,0,0,0-.84-1.32,2,2,0,0,0-1.51-.33l-10,1.77a31.11,31.11,0,0,1,4.76-4.55,30.34,30.34,0,0,1,42.6,5.68,30.58,30.58,0,0,1-5.66,42.78,30,30,0,0,1-18.4,6.29,30.91,30.91,0,0,1-4.07-.27A30.18,30.18,0,0,1,18,65.54,30.63,30.63,0,0,1,12.19,52.1a2,2,0,0,0-.82-1.32,2,2,0,0,0-1.51-.35l-5.33.9a2,2,0,0,0-1.66,2.34,40.15,40.15,0,0,0,7.65,17.64A39.58,39.58,0,0,0,36.91,86.65a41.21,41.21,0,0,0,5.32.35,39.26,39.26,0,0,0,24.14-8.25,40.1,40.1,0,0,0,7.42-56.08Z"/></g><path class="cls-2" d="M73.79,15.67a39.74,39.74,0,0,0-62.67-.76L9.34,4.79A2,2,0,0,0,7,3.14l-5.32.94a2,2,0,0,0-1.3.84A2,2,0,0,0,0,6.44l4.23,24a2,2,0,0,0,2,1.68,2.07,2.07,0,0,0,.35,0l23.94-4.25a2,2,0,0,0,1.65-2.35l-.94-5.34a2.09,2.09,0,0,0-.84-1.32,2,2,0,0,0-1.51-.33l-10,1.77a31.11,31.11,0,0,1,4.76-4.55,30.34,30.34,0,0,1,42.6,5.68,30.58,30.58,0,0,1-5.66,42.78,30,30,0,0,1-18.4,6.29,30.91,30.91,0,0,1-4.07-.27A30.18,30.18,0,0,1,18,58.54,30.63,30.63,0,0,1,12.19,45.1a2,2,0,0,0-.82-1.32,2,2,0,0,0-1.51-.35l-5.33.9a2,2,0,0,0-1.66,2.34,40.15,40.15,0,0,0,7.65,17.64A39.58,39.58,0,0,0,36.91,79.65a41.21,41.21,0,0,0,5.32.35,39.26,39.26,0,0,0,24.14-8.25,40.1,40.1,0,0,0,7.42-56.08Z"/></g></g></svg>