<svg xmlns="http://www.w3.org/2000/svg" viewBox="0 0 48 51"><defs><style>.cls-1{opacity:0.18;}.cls-2{fill:#fff;}</style></defs><g id="Слой_2" data-name="Слой 2"><g id="Ranking"><g class="cls-1"><path d="M33.13,25.79H35c.23,0,.45,0,.68,0A13,13,0,0,0,48,12.53a1.24,1.24,0,0,0-1.22-1.18H38.87c.07-.55.12-1,.15-1.49.08-1,.09-1.64.09-1.86V7.93h0a2.43,2.43,0,0,0,2.33-1.65A2.47,2.47,0,0,0,39.16,3H8.94A2.53,2.53,0,0,0,6.38,5.39,2.46,2.46,0,0,0,8.84,7.93h.05V8c0,.22,0,.88.09,1.86,0,.44.08.94.15,1.49H1.22A1.23,1.23,0,0,0,0,12.58,13,13,0,0,0,13,25.79h1.88A12.76,12.76,0,0,0,16.15,27a11.79,11.79,0,0,0,4.9,2.31v.37c0,.54,0,1.07-.05,1.59-.28,3.89-1.72,6.84-5.84,6.84H13.92a2,2,0,0,0-2,2v3.27H7.59a1.22,1.22,0,0,0-1.22,1.22v5.19A1.22,1.22,0,0,0,7.59,51H40.41a1.22,1.22,0,0,0,1.22-1.22V44.59a1.22,1.22,0,0,0-1.22-1.22H35.93V40.1a2,2,0,0,0-.09-.59A2,2,0,0,0,35,38.38a2.05,2.05,0,0,0-1.1-.32H32.64c-4.1,0-5.47-2.94-5.74-6.82,0-.26,0-.53,0-.8s0-.54,0-.81v-.35A11.91,11.91,0,0,0,33.13,25.79Zm7.66-14.21c-.11.9-.24,1.8-.4,2.67H45a10.15,10.15,0,0,1-7.28,8.28,19.77,19.77,0,0,1-2.4.36,27.31,27.31,0,0,0,3.1-8.64h2C40.55,13.38,40.68,12.48,40.79,11.58ZM3,14.25H9.58a29,29,0,0,0,2.25,7.05c.26.54.54,1.07.85,1.59a20.8,20.8,0,0,1-2.31-.34A10.13,10.13,0,0,1,3,14.25Z"/></g><path class="cls-2" d="M33.13,22.79H35c.23,0,.45,0,.68,0A13,13,0,0,0,48,9.53a1.24,1.24,0,0,0-1.22-1.18H38.87c.07-.55.12-1,.15-1.49.08-1,.09-1.64.09-1.86V4.93h0a2.43,2.43,0,0,0,2.33-1.65A2.47,2.47,0,0,0,39.16,0H8.94A2.53,2.53,0,0,0,6.38,2.39,2.46,2.46,0,0,0,8.84,4.93h.05V5c0,.22,0,.88.09,1.86,0,.44.08.94.15,1.49H1.22A1.23,1.23,0,0,0,0,9.58,13,13,0,0,0,13,22.79h1.88A12.76,12.76,0,0,0,16.15,24a11.79,11.79,0,0,0,4.9,2.31v.37c0,.54,0,1.07-.05,1.59-.28,3.89-1.72,6.84-5.84,6.84H13.92a2,2,0,0,0-2,2v3.27H7.59a1.22,1.22,0,0,0-1.22,1.22v5.19A1.22,1.22,0,0,0,7.59,48H40.41a1.22,1.22,0,0,0,1.22-1.22V41.59a1.22,1.22,0,0,0-1.22-1.22H35.93V37.1a2,2,0,0,0-.09-.59A2,2,0,0,0,35,35.38a2.05,2.05,0,0,0-1.1-.32H32.64c-4.1,0-5.47-2.94-5.74-6.82,0-.26,0-.53,0-.8s0-.54,0-.81v-.35A11.91,11.91,0,0,0,33.13,22.79ZM40.79,8.58c-.11.9-.24,1.8-.4,2.67H45a10.15,10.15,0,0,1-7.28,8.28,19.77,19.77,0,0,1-2.4.36,27.31,27.31,0,0,0,3.1-8.64h2C40.55,10.38,40.68,9.48,40.79,8.58ZM3,11.25H9.58a29,29,0,0,0,2.25,7.05c.26.54.54,1.07.85,1.59a20.8,20.8,0,0,1-2.31-.34A10.13,10.13,0,0,1,3,11.25Z"/></g></g></svg>