<svg xmlns="http://www.w3.org/2000/svg" viewBox="0 0 64 71"><defs><style>.cls-1{opacity:0.18;}.cls-2{fill:#fff;}</style></defs><g id="Слой_2" data-name="Слой 2"><g id="Settings"><g class="cls-1"><path d="M39.05,39,63,15.07a3.51,3.51,0,0,0,0-5L60.88,8a3.51,3.51,0,0,0-5,0L32,32,8.07,8A3.51,3.51,0,0,0,3.12,8L1,10.12a3.51,3.51,0,0,0,0,5L25,39,1,62.93a3.51,3.51,0,0,0,0,4.95L3.12,70a3.51,3.51,0,0,0,5,0L32,46.05,55.93,70a3.47,3.47,0,0,0,2.47,1h0a3.48,3.48,0,0,0,2.48-1l2.1-2.1a3.51,3.51,0,0,0,0-4.95Z"/></g><path class="cls-2" d="M39.05,32,63,8.07a3.51,3.51,0,0,0,0-4.95L60.88,1a3.51,3.51,0,0,0-5,0L32,25,8.07,1A3.51,3.51,0,0,0,3.12,1L1,3.12a3.51,3.51,0,0,0,0,5L25,32,1,55.93a3.51,3.51,0,0,0,0,5L3.12,63a3.51,3.51,0,0,0,5,0L32,39.05,55.93,63a3.47,3.47,0,0,0,2.47,1h0a3.48,3.48,0,0,0,2.48-1l2.1-2.1a3.51,3.51,0,0,0,0-5Z"/></g></g></svg>