<svg xmlns="http://www.w3.org/2000/svg" viewBox="0 0 100 100"><defs><style>.cls-1{fill:#fff;}</style></defs><g id="Слой_2" data-name="Слой 2"><g id="Menu"><path class="cls-1" d="M69,47.48h3.93c.47,0,1,0,1.41,0A27.09,27.09,0,0,0,100,19.85a2.55,2.55,0,0,0-2.54-2.45H81c.14-1.15.24-2.2.31-3.11.16-2,.19-3.42.2-3.87v-.16h.1a5.06,5.06,0,0,0,4.85-3.42A5.14,5.14,0,0,0,81.59,0h-63a5.28,5.28,0,0,0-5.35,5,5.13,5.13,0,0,0,5.13,5.29h.1v.16c0,.45,0,1.84.2,3.87.07.91.17,2,.31,3.11H2.55A2.57,2.57,0,0,0,0,20,27.09,27.09,0,0,0,27.06,47.48H31a25.36,25.36,0,0,0,2.66,2.42,24.41,24.41,0,0,0,10.21,4.8v.77c0,1.13,0,2.24-.11,3.32C43.16,66.9,40.16,73,31.59,73H29a4.26,4.26,0,0,0-4.26,4.26v6.8H15.82a2.54,2.54,0,0,0-2.54,2.54V97.46A2.54,2.54,0,0,0,15.82,100H84.18a2.54,2.54,0,0,0,2.54-2.54V86.64a2.54,2.54,0,0,0-2.54-2.54H74.85V77.3A4.26,4.26,0,0,0,70.59,73H68c-8.56,0-11.41-6.12-12-14.21,0-.55-.06-1.1-.08-1.66s0-1.13,0-1.7v-.72A24.78,24.78,0,0,0,69,47.48Zm16-29.6c-.22,1.87-.5,3.74-.84,5.56h9.61A21.09,21.09,0,0,1,78.59,40.68a41,41,0,0,1-5,.76,56.57,56.57,0,0,0,6.47-18h4.09C84.48,21.62,84.76,19.75,85,17.88ZM6.25,23.44H20a61.63,61.63,0,0,0,4.69,14.69c.55,1.13,1.13,2.23,1.78,3.31a42.42,42.42,0,0,1-4.81-.71A21.1,21.1,0,0,1,6.25,23.44Z"/></g></g></svg>