<svg xmlns="http://www.w3.org/2000/svg" viewBox="0 0 216 216"><defs><style>.cls-1{fill:#008bc6;}.cls-2{fill:#00a6ed;}.cls-3{fill:#fff;}</style></defs><g id="Слой_2" data-name="Слой 2"><g id="Menu"><rect class="cls-1" width="216" height="216" rx="18"/><rect class="cls-2" width="216" height="198" rx="18"/><path class="cls-1" d="M130.06,102.08h4.55c.55,0,1.1,0,1.64,0A31.42,31.42,0,0,0,166,70a3,3,0,0,0-3-2.84h-19.1c.16-1.34.27-2.55.36-3.62.18-2.35.22-4,.23-4.48V58.9h.11a5.88,5.88,0,0,0,5.64-4A6,6,0,0,0,144.64,47h-73a6.11,6.11,0,0,0-6.2,5.77,6,6,0,0,0,6,6.13h.11v.19c0,.52,0,2.13.23,4.48.09,1.07.2,2.28.36,3.62H53a3,3,0,0,0-3,3,31.43,31.43,0,0,0,31.39,31.94h4.55a31.81,31.81,0,0,0,3.1,2.81,28.45,28.45,0,0,0,11.84,5.57v.89c0,1.31,0,2.6-.13,3.84-.68,9.42-4.17,16.53-14.11,16.53h-3a5,5,0,0,0-4.94,4.95v7.89H68.35a3,3,0,0,0-2.95,2.95v12.55A3,3,0,0,0,68.35,163h79.3a3,3,0,0,0,2.95-2.94V147.51a3,3,0,0,0-2.95-2.95H136.82v-7.89a4.87,4.87,0,0,0-.21-1.44,4.94,4.94,0,0,0-4.73-3.51h-3c-9.92,0-13.23-7.09-13.88-16.48q-.06-.94-.09-1.92c0-.65,0-1.31,0-2v-.84A28.87,28.87,0,0,0,130.06,102.08Zm18.52-34.34c-.26,2.17-.58,4.34-1,6.45h11.14a24.48,24.48,0,0,1-17.59,20,47.64,47.64,0,0,1-5.8.88c4-6.65,6.22-14.32,7.5-20.88h4.75C148,72.08,148.32,69.91,148.58,67.74ZM57.25,74.19H73.14a71,71,0,0,0,5.45,17c.62,1.3,1.31,2.58,2,3.83a50.77,50.77,0,0,1-5.57-.82A24.47,24.47,0,0,1,57.25,74.19Z"/><path class="cls-3" d="M130.06,96.08h4.55c.55,0,1.1,0,1.64,0A31.42,31.42,0,0,0,166,64a3,3,0,0,0-3-2.84h-19.1c.16-1.34.27-2.55.36-3.62.18-2.35.22-4,.23-4.48V52.9h.11a5.88,5.88,0,0,0,5.64-4A6,6,0,0,0,144.64,41h-73a6.11,6.11,0,0,0-6.2,5.77,6,6,0,0,0,6,6.13h.11v.19c0,.52,0,2.13.23,4.48.09,1.07.2,2.28.36,3.62H53a3,3,0,0,0-3,3A31.43,31.43,0,0,0,81.39,96.08h4.55A31.81,31.81,0,0,0,89,98.89a28.45,28.45,0,0,0,11.84,5.57v.89c0,1.31,0,2.6-.13,3.84-.68,9.42-4.17,16.53-14.11,16.53h-3a5,5,0,0,0-4.94,4.95v7.89H68.35a3,3,0,0,0-2.95,2.95v12.55A3,3,0,0,0,68.35,157h79.3a3,3,0,0,0,2.95-2.94V141.51a3,3,0,0,0-2.95-2.95H136.82v-7.89a4.87,4.87,0,0,0-.21-1.44,4.94,4.94,0,0,0-4.73-3.51h-3c-9.92,0-13.23-7.09-13.88-16.48q-.06-.94-.09-1.92c0-.65,0-1.31,0-2v-.84A28.87,28.87,0,0,0,130.06,96.08Zm18.52-34.34c-.26,2.17-.58,4.34-1,6.45h11.14a24.48,24.48,0,0,1-17.59,20,47.64,47.64,0,0,1-5.8.88c4-6.65,6.22-14.32,7.5-20.88h4.75C148,66.08,148.32,63.91,148.58,61.74ZM57.25,68.19H73.14a71,71,0,0,0,5.45,17c.62,1.3,1.31,2.58,2,3.83a50.77,50.77,0,0,1-5.57-.82A24.47,24.47,0,0,1,57.25,68.19Z"/></g></g></svg>