<svg xmlns="http://www.w3.org/2000/svg" viewBox="0 0 184 184"><defs><style>.cls-1{fill:#c94d47;}.cls-2{fill:#f05c54;}.cls-3,.cls-4{fill:#fff;}.cls-4{stroke:#fff;stroke-miterlimit:10;stroke-width:8px;}</style></defs><g id="Слой_2" data-name="Слой 2"><g id="Menu"><rect class="cls-1" width="184" height="184" rx="18"/><rect class="cls-2" width="184" height="168.67" rx="18"/><path class="cls-1" d="M92,34.33a56,56,0,1,0,56,56A56,56,0,0,0,92,34.33Zm0,103.86a47.86,47.86,0,1,1,47.85-47.86A47.85,47.85,0,0,1,92,138.19Z"/><path class="cls-3" d="M92,28.33a56,56,0,1,0,56,56A56,56,0,0,0,92,28.33Zm0,103.86a47.86,47.86,0,1,1,47.85-47.86A47.85,47.85,0,0,1,92,132.19Z"/><path class="cls-1" d="M62.22,106.49v-33a5.13,5.13,0,0,1,1.47-3.71,4.72,4.72,0,0,1,3.52-1.52h6.92a4.73,4.73,0,0,1,3.52,1.52,5.13,5.13,0,0,1,1.47,3.71v33H73V90.25l-4.71,2.47v13.77ZM68.31,86,73,83.47V74H68.31Z"/><path class="cls-1" d="M83.55,106.49V68.22H95.46A4.73,4.73,0,0,1,99,69.74a5.13,5.13,0,0,1,1.47,3.71v27.81A5.11,5.11,0,0,1,99,105a4.73,4.73,0,0,1-3.52,1.52Zm10.81-5.78V74H89.65v26.7Z"/><path class="cls-1" d="M104.88,73.45a5.1,5.1,0,0,1,1.47-3.74,4.78,4.78,0,0,1,3.52-1.49h6.93a4.75,4.75,0,0,1,3.52,1.52,5.17,5.17,0,0,1,1.47,3.71v1.66l-6.1,3V74H111V84.19l10.81-5.51v22.58a5.21,5.21,0,0,1-1.47,3.69,4.73,4.73,0,0,1-3.52,1.54h-6.93a4.73,4.73,0,0,1-3.52-1.52,5.11,5.11,0,0,1-1.47-3.71V97.68l6.1-3v6.06h4.71V88.59L104.88,94.1Z"/><path class="cls-3" d="M62.22,101.49v-33a5.13,5.13,0,0,1,1.47-3.71,4.72,4.72,0,0,1,3.52-1.52h6.92a4.73,4.73,0,0,1,3.52,1.52,5.13,5.13,0,0,1,1.47,3.71v33H73V85.25l-4.71,2.47v13.77ZM68.31,81,73,78.47V69H68.31Z"/><path class="cls-3" d="M83.55,101.49V63.22H95.46A4.73,4.73,0,0,1,99,64.74a5.13,5.13,0,0,1,1.47,3.71V96.26A5.11,5.11,0,0,1,99,100a4.73,4.73,0,0,1-3.52,1.52Zm10.81-5.78V69H89.65v26.7Z"/><path class="cls-3" d="M104.88,68.45a5.1,5.1,0,0,1,1.47-3.74,4.78,4.78,0,0,1,3.52-1.49h6.93a4.75,4.75,0,0,1,3.52,1.52,5.17,5.17,0,0,1,1.47,3.71v1.66l-6.1,3V69H111V79.19l10.81-5.51V96.26a5.21,5.21,0,0,1-1.47,3.69,4.73,4.73,0,0,1-3.52,1.54h-6.93a4.73,4.73,0,0,1-3.52-1.52,5.11,5.11,0,0,1-1.47-3.71V92.68l6.1-3v6.06h4.71V83.59L104.88,89.1Z"/><line class="cls-4" x1="61.04" y1="44.45" x2="125.31" y2="120.95"/></g></g></svg>