<svg xmlns="http://www.w3.org/2000/svg" viewBox="0 0 184 184"><defs><style>.cls-1{fill:#697bbd;}.cls-2{fill:#7e94e4;}.cls-3{fill:#fff;}</style></defs><g id="Слой_2" data-name="Слой 2"><g id="Menu"><rect class="cls-1" width="184" height="184" rx="18"/><rect class="cls-2" width="184" height="168.67" rx="18"/><path class="cls-1" d="M135.1,101.91l-9.54-7.29a28.92,28.92,0,0,0,0-8.58l9.57-7.28a2.14,2.14,0,0,0,.54-2.81l-9-15.25a2.28,2.28,0,0,0-2.76-1l-11.26,4.43A34.46,34.46,0,0,0,105,59.84l-1.69-11.66A2.32,2.32,0,0,0,101,46.33H82.92a2.27,2.27,0,0,0-2.24,1.85L79,59.84a33.61,33.61,0,0,0-7.64,4.34L60.08,59.75a2.3,2.3,0,0,0-2.76,1L48.28,76a2.15,2.15,0,0,0,.54,2.81L58.36,86a29.84,29.84,0,0,0,0,8.58l-9.54,7.29a2.14,2.14,0,0,0-.54,2.81l9,15.25a2.27,2.27,0,0,0,2.76.94l11.26-4.42A34.78,34.78,0,0,0,79,120.83l1.7,11.66a2.26,2.26,0,0,0,2.24,1.84H101a2.27,2.27,0,0,0,2.24-1.84l1.69-11.66a34,34,0,0,0,7.64-4.34l11.26,4.42a2.29,2.29,0,0,0,2.76-.94l9.05-15.25A2.16,2.16,0,0,0,135.1,101.91ZM92,105.73a15.41,15.41,0,1,1,15.83-15.4A15.61,15.61,0,0,1,92,105.73Z"/><path class="cls-3" d="M135.1,95.91l-9.54-7.29a28.92,28.92,0,0,0,0-8.58l9.57-7.28a2.14,2.14,0,0,0,.54-2.81l-9-15.25a2.28,2.28,0,0,0-2.76-1l-11.26,4.43A34.46,34.46,0,0,0,105,53.84l-1.69-11.66A2.32,2.32,0,0,0,101,40.33H82.92a2.27,2.27,0,0,0-2.24,1.85L79,53.84a33.61,33.61,0,0,0-7.64,4.34L60.08,53.75a2.3,2.3,0,0,0-2.76,1L48.28,70a2.15,2.15,0,0,0,.54,2.81L58.36,80a29.84,29.84,0,0,0,0,8.58l-9.54,7.29a2.14,2.14,0,0,0-.54,2.81l9,15.25a2.27,2.27,0,0,0,2.76.94l11.26-4.42A34.78,34.78,0,0,0,79,114.83l1.7,11.66a2.26,2.26,0,0,0,2.24,1.84H101a2.27,2.27,0,0,0,2.24-1.84l1.69-11.66a34,34,0,0,0,7.64-4.34l11.26,4.42a2.29,2.29,0,0,0,2.76-.94l9.05-15.25A2.16,2.16,0,0,0,135.1,95.91ZM92,99.73a15.41,15.41,0,1,1,15.83-15.4A15.61,15.61,0,0,1,92,99.73Z"/></g></g></svg>