<svg xmlns="http://www.w3.org/2000/svg" viewBox="0 0 82 82"><defs><style>.cls-1{fill:#fff;}</style></defs><g id="Слой_2" data-name="Слой 2"><g id="Menu"><path class="cls-1" d="M81.19,51.78,72.3,45a31.12,31.12,0,0,0,.29-4,31.12,31.12,0,0,0-.29-4l8.91-6.78a2,2,0,0,0,.51-2.63l-8.43-14.2a2.12,2.12,0,0,0-2.57-.89L60.23,16.63a31.81,31.81,0,0,0-7.13-4L51.52,1.72A2.15,2.15,0,0,0,49.42,0H32.56a2.1,2.1,0,0,0-2.08,1.72L28.9,12.59a31.26,31.26,0,0,0-7.13,4L11.28,12.5a2.14,2.14,0,0,0-2.57.89L.28,27.59a2,2,0,0,0,.51,2.63L9.68,37a31.12,31.12,0,0,0-.3,4,31.12,31.12,0,0,0,.3,4L.79,51.78a2,2,0,0,0-.51,2.63l8.43,14.2a2.12,2.12,0,0,0,2.57.89l10.49-4.13a31.81,31.81,0,0,0,7.13,4l1.58,10.87A2.1,2.1,0,0,0,32.56,82H49.42a2.11,2.11,0,0,0,2.08-1.72l1.58-10.87a31.19,31.19,0,0,0,7.12-4L70.7,69.5a2.14,2.14,0,0,0,2.57-.89l8.43-14.2A2,2,0,0,0,81.19,51.78ZM41,55.35A14.36,14.36,0,1,1,55.74,41,14.55,14.55,0,0,1,41,55.35Z"/></g></g></svg>