<svg xmlns="http://www.w3.org/2000/svg" viewBox="0 0 216 216"><defs><style>.cls-1{fill:#e6a329;}.cls-2{fill:#fdcb3a;}.cls-3{fill:#fff;}</style></defs><g id="Слой_2" data-name="Слой 2"><g id="Menu"><rect class="cls-1" width="216" height="216" rx="18"/><rect class="cls-2" width="216" height="198" rx="18"/><path class="cls-1" d="M79.38,124h68.81a3.79,3.79,0,0,0,3.66-2.76L167.08,68a3.78,3.78,0,0,0-.61-3.33,3.84,3.84,0,0,0-3.05-1.51H70.59L67.87,51a3.82,3.82,0,0,0-3.72-3H41a3.8,3.8,0,1,0,0,7.6H61.09l13.75,61.75a11.39,11.39,0,0,0,4.54,21.85h68.81a3.8,3.8,0,1,0,0-7.6H79.38a3.8,3.8,0,1,1,0-7.6Z"/><path class="cls-1" d="M75.57,150.6A11.43,11.43,0,1,0,87,139.2,11.43,11.43,0,0,0,75.57,150.6Z"/><path class="cls-1" d="M129.15,150.6a11.43,11.43,0,1,0,11.42-11.4A11.42,11.42,0,0,0,129.15,150.6Z"/><path class="cls-3" d="M79.38,118h68.81a3.79,3.79,0,0,0,3.66-2.76L167.08,62a3.78,3.78,0,0,0-.61-3.33,3.84,3.84,0,0,0-3.05-1.51H70.59L67.87,45a3.82,3.82,0,0,0-3.72-3H41a3.8,3.8,0,1,0,0,7.6H61.09l13.75,61.75a11.39,11.39,0,0,0,4.54,21.85h68.81a3.8,3.8,0,1,0,0-7.6H79.38a3.8,3.8,0,1,1,0-7.6Z"/><path class="cls-3" d="M75.57,144.6A11.43,11.43,0,1,0,87,133.2,11.43,11.43,0,0,0,75.57,144.6Z"/><path class="cls-3" d="M129.15,144.6a11.43,11.43,0,1,0,11.42-11.4A11.42,11.42,0,0,0,129.15,144.6Z"/></g></g></svg>