<svg xmlns="http://www.w3.org/2000/svg" viewBox="0 0 108 106"><defs><style>.cls-1{fill:#d8af32;}.cls-2{fill:#fafaff;}</style></defs><g id="Слой_2" data-name="Слой 2"><g id="Settings"><path class="cls-1" d="M35,72.67H92.18a3.18,3.18,0,0,0,3-2.42l12.66-46.67a3.47,3.47,0,0,0-.52-2.92,3.13,3.13,0,0,0-2.52-1.33H27.71L25.45,8.61A3.2,3.2,0,0,0,22.36,6H3.16A3.25,3.25,0,0,0,0,9.33a3.25,3.25,0,0,0,3.16,3.34H19.82L31.25,66.83A10,10,0,0,0,25.52,76,9.77,9.77,0,0,0,35,86H92.18a3.34,3.34,0,0,0,0-6.67H35a3.33,3.33,0,0,1,0-6.66Z"/><path class="cls-1" d="M31.85,96a9.77,9.77,0,0,0,9.49,10,10,10,0,0,0,0-20A9.77,9.77,0,0,0,31.85,96Z"/><path class="cls-1" d="M76.36,96a9.5,9.5,0,1,0,9.49-10A9.77,9.77,0,0,0,76.36,96Z"/><path class="cls-2" d="M35,66.67H92.18a3.18,3.18,0,0,0,3-2.42l12.66-46.67a3.47,3.47,0,0,0-.52-2.92,3.13,3.13,0,0,0-2.52-1.33H27.71L25.45,2.61A3.2,3.2,0,0,0,22.36,0H3.16A3.25,3.25,0,0,0,0,3.33,3.25,3.25,0,0,0,3.16,6.67H19.82L31.25,60.83A10,10,0,0,0,25.52,70,9.77,9.77,0,0,0,35,80H92.18a3.34,3.34,0,0,0,0-6.67H35a3.33,3.33,0,0,1,0-6.66Z"/><path class="cls-2" d="M31.85,90a9.77,9.77,0,0,0,9.49,10,10,10,0,0,0,0-20A9.77,9.77,0,0,0,31.85,90Z"/><path class="cls-2" d="M76.36,90a9.5,9.5,0,1,0,9.49-10A9.77,9.77,0,0,0,76.36,90Z"/></g></g></svg>