<svg xmlns="http://www.w3.org/2000/svg" viewBox="0 0 224 46.84"><defs><style>.cls-1{fill:#cce4f1;}.cls-2{fill:#fafaff;}</style></defs><g id="Слой_2" data-name="Слой 2"><g id="Menu"><path class="cls-1" d="M212.93,45.26a12,12,0,0,1-3.7-2c-3.16-2.24-4-3.53-6.1-5.2a27.63,27.63,0,0,0-6.2-3.43,53.12,53.12,0,0,0-16.51-4.14A48.39,48.39,0,0,0,164,31.2c-6.47,1.53-6.38,3.18-15.09,6.05-5.37,1.77-9.57,3.15-15.22,3.11-6.27,0-10.93-1.83-15.15-3.44-8-3-8-5-15.58-8a54.34,54.34,0,0,0-17.31-4.09,53.29,53.29,0,0,0-20.32,2.67,65.38,65.38,0,0,0-17.28,9.6,45.22,45.22,0,0,1-6.24,4.66c-1,.62-1.9,1.07-2.44,1.35a35.06,35.06,0,0,1-13.32,3.61,30.53,30.53,0,0,1-11.89-1.2C4.28,42.18.65,33.43,0,31.75V25.5A21,21,0,0,1,13.17,6.55,21.79,21.79,0,0,1,21.33,5c6.06,0,79.78-.07,181,0a21.11,21.11,0,0,1,15.76,6.44,21.27,21.27,0,0,1,4.39,6.8A21,21,0,0,1,224,26V38c0,.17,0,.44-.08.76,0,.15,0,.26,0,.3a7.23,7.23,0,0,1-.34,1.33,7.5,7.5,0,0,1-4,4.48A10,10,0,0,1,212.93,45.26Z"/><path class="cls-2" d="M212.93,40.26a12,12,0,0,1-3.7-2c-3.16-2.24-4-3.53-6.1-5.2a27.63,27.63,0,0,0-6.2-3.43,53.12,53.12,0,0,0-16.51-4.14A48.39,48.39,0,0,0,164,26.2c-6.47,1.53-6.38,3.18-15.09,6.05-5.37,1.77-9.57,3.15-15.22,3.11-6.27,0-10.93-1.83-15.15-3.44-8-3-8-5-15.58-8a54.34,54.34,0,0,0-17.31-4.09,53.29,53.29,0,0,0-20.32,2.67,65.38,65.38,0,0,0-17.28,9.6,45.22,45.22,0,0,1-6.24,4.66c-1,.62-1.9,1.07-2.44,1.35a35.06,35.06,0,0,1-13.32,3.61,30.53,30.53,0,0,1-11.89-1.2C4.28,37.18.65,28.43,0,26.75V20.5A21,21,0,0,1,13.17,1.55,21.79,21.79,0,0,1,21.33,0c6.06,0,79.78-.07,181,0a21.11,21.11,0,0,1,15.76,6.44,21.27,21.27,0,0,1,4.39,6.8A21,21,0,0,1,224,21V33c0,.17,0,.44-.08.76,0,.15,0,.26,0,.3a7.23,7.23,0,0,1-.34,1.33,7.5,7.5,0,0,1-4,4.48A10,10,0,0,1,212.93,40.26Z"/></g></g></svg>