<svg xmlns="http://www.w3.org/2000/svg" viewBox="0 0 452 54.51"><defs><style>.cls-1{fill:#cce4f1;}.cls-2{fill:#fafaff;}</style></defs><g id="Слой_2" data-name="Слой 2"><g id="Menu"><path class="cls-1" d="M21.19,5a20.86,20.86,0,0,0-12,3.67A20.89,20.89,0,0,0,4.27,13.3,21,21,0,0,0,0,25.68v6.83A21.41,21.41,0,0,0,7.84,41,26.09,26.09,0,0,0,21.13,45a28.37,28.37,0,0,0,14.39-3.83c5.08-2.78,4.54-4.4,9.88-7.12a24.31,24.31,0,0,1,11.47-3.27,23.64,23.64,0,0,1,12.2,3.43,30.83,30.83,0,0,1,5.58,4.41c2.46,2.28,3,3.31,5.15,5.53a37.84,37.84,0,0,0,7.3,6.21,30.31,30.31,0,0,0,14.22,4.18,30.93,30.93,0,0,0,13.17-2.6,32,32,0,0,0,8.83-6.16c3-2.68,3.08-3.48,6.61-7.21,3.88-4.08,6.12-6.45,9.72-8.63a31.34,31.34,0,0,1,13.93-4.7,32.3,32.3,0,0,1,14.25,2.05c4.11,1.52,5.44,3,9,5,7.37,4.26,14.56,5.51,18.87,6.27a67.5,67.5,0,0,0,27.6-1.06A111.8,111.8,0,0,0,245,29.22a43.78,43.78,0,0,1,12.16-4.69A42.37,42.37,0,0,1,269,23.8c3.63.28,6.51,1.08,12.26,2.68,1.42.4,5.59,1.59,11.39,3.67,7.54,2.72,7.33,3.18,11.41,4.45a61.17,61.17,0,0,0,16.26,2.6,64.73,64.73,0,0,0,16.55-1.76c6.42-1.52,7.82-2.89,14.8-5.14a105.31,105.31,0,0,1,17.91-3.93,84.41,84.41,0,0,1,37.13,3.8c3.46,1.22,11.44,4,16.48,8.46,2.09,1.84,4.27,3.61,6.32,5.49,2.41,2.19,3,2.83,4.46,3.66a14.12,14.12,0,0,0,7.93,2.1,11.7,11.7,0,0,0,6.9-2.46,9.17,9.17,0,0,0,2.05-2.4A8.81,8.81,0,0,0,452,41.24q0-7.62,0-15.23A21.12,21.12,0,0,0,437.8,6.11,20.78,20.78,0,0,0,430.93,5Z" transform="translate(0 0)"/><path class="cls-2" d="M21.19,0a20.86,20.86,0,0,0-12,3.67A20.89,20.89,0,0,0,4.27,8.3,21,21,0,0,0,0,20.68v6.83A21.41,21.41,0,0,0,7.84,36,26.09,26.09,0,0,0,21.13,40a28.37,28.37,0,0,0,14.39-3.83c5.08-2.78,4.54-4.4,9.88-7.12a24.31,24.31,0,0,1,11.47-3.27,23.64,23.64,0,0,1,12.2,3.43,30.83,30.83,0,0,1,5.58,4.41c2.46,2.28,3,3.31,5.15,5.53a37.84,37.84,0,0,0,7.3,6.21,30.31,30.31,0,0,0,14.22,4.18,30.93,30.93,0,0,0,13.17-2.6,32,32,0,0,0,8.83-6.16c3-2.68,3.08-3.48,6.61-7.21,3.88-4.08,6.12-6.45,9.72-8.63a31.34,31.34,0,0,1,13.93-4.7,32.3,32.3,0,0,1,14.25,2.05c4.11,1.52,5.44,3,9,5,7.37,4.26,14.56,5.51,18.87,6.27a67.5,67.5,0,0,0,27.6-1.06A111.8,111.8,0,0,0,245,24.22a43.78,43.78,0,0,1,12.16-4.69A42.37,42.37,0,0,1,269,18.8c3.63.28,6.51,1.08,12.26,2.68,1.42.4,5.59,1.59,11.39,3.67,7.54,2.72,7.33,3.18,11.41,4.45a61.17,61.17,0,0,0,16.26,2.6,64.73,64.73,0,0,0,16.55-1.76c6.42-1.52,7.82-2.89,14.8-5.14a105.31,105.31,0,0,1,17.91-3.93,84.41,84.41,0,0,1,37.13,3.8c3.46,1.22,11.44,4,16.48,8.46,2.09,1.84,4.27,3.61,6.32,5.49,2.41,2.19,3,2.83,4.46,3.66a14.12,14.12,0,0,0,7.93,2.1,11.7,11.7,0,0,0,6.9-2.46,9.17,9.17,0,0,0,2.05-2.4A8.81,8.81,0,0,0,452,36.24q0-7.62,0-15.23A21.12,21.12,0,0,0,437.8,1.11,20.78,20.78,0,0,0,430.93,0Z" transform="translate(0 0)"/></g></g></svg>