<svg xmlns="http://www.w3.org/2000/svg" viewBox="0 0 216 216"><defs><style>.cls-1{fill:#c94d47;}.cls-2{fill:#f05c54;}.cls-3{fill:#fff;}</style></defs><g id="Слой_2" data-name="Слой 2"><g id="Menu"><rect class="cls-1" width="216" height="216" rx="18"/><rect class="cls-2" width="216" height="198" rx="18"/><path class="cls-1" d="M116.81,106l29.91-29.91A4.39,4.39,0,0,0,148,73a4.31,4.31,0,0,0-1.28-3.09l-2.62-2.62a4.38,4.38,0,0,0-6.19,0L108,97.19,78.09,67.28a4.38,4.38,0,0,0-6.19,0L69.28,69.9a4.38,4.38,0,0,0,0,6.19L99.19,106,69.28,135.91a4.38,4.38,0,0,0,0,6.19l2.62,2.62a4.38,4.38,0,0,0,6.19,0L108,114.81l29.91,29.91A4.33,4.33,0,0,0,141,146h0a4.31,4.31,0,0,0,3.09-1.28l2.62-2.62a4.38,4.38,0,0,0,0-6.19Z"/><path class="cls-3" d="M116.81,99l29.91-29.91A4.39,4.39,0,0,0,148,66a4.31,4.31,0,0,0-1.28-3.09l-2.62-2.62a4.38,4.38,0,0,0-6.19,0L108,90.19,78.09,60.28a4.38,4.38,0,0,0-6.19,0L69.28,62.9a4.38,4.38,0,0,0,0,6.19L99.19,99,69.28,128.91a4.38,4.38,0,0,0,0,6.19l2.62,2.62a4.38,4.38,0,0,0,6.19,0L108,107.81l29.91,29.91A4.33,4.33,0,0,0,141,139h0a4.31,4.31,0,0,0,3.09-1.28l2.62-2.62a4.38,4.38,0,0,0,0-6.19Z"/></g></g></svg>