<svg xmlns="http://www.w3.org/2000/svg" viewBox="0 0 88.01 96"><defs><style>.cls-1{fill:#fe9923;}.cls-2{fill:#fedb41;}.cls-3{fill:#fea832;}.cls-4{fill:#fc3;}</style></defs><g id="Слой_2" data-name="Слой 2"><g id="Menu"><path class="cls-1" d="M56,64C13.34,63.28,13.35.71,56,0,98.68.72,98.68,63.29,56,64Z"/><path class="cls-2" d="M56,60C13.92,59.3,13.93.7,56,0,98.11.7,98.1,59.3,56,60Z"/><path class="cls-3" d="M56,11.2C31,11.64,31,48.37,56,48.8,81.09,48.37,81.09,11.63,56,11.2Z"/><path class="cls-4" d="M56,15.2c-24.53.4-24.53,33.2,0,33.6C80.56,48.4,80.55,15.6,56,15.2Z"/><path class="cls-1" d="M32,96c-42.67-.72-42.66-63.29,0-64C74.67,32.72,74.66,95.29,32,96Z"/><path class="cls-2" d="M32,92c-42.09-.7-42.09-59.3,0-60C74.09,32.7,74.09,91.3,32,92Z"/><path class="cls-3" d="M32,43.2C6.94,43.64,7,80.37,32,80.8,57.08,80.37,57.08,43.63,32,43.2Z"/><path class="cls-4" d="M32,47.2c-24.53.4-24.53,33.2,0,33.6C56.54,80.4,56.54,47.6,32,47.2Z"/></g></g></svg>