<svg xmlns="http://www.w3.org/2000/svg" viewBox="0 0 128 128"><defs><style>.cls-1{fill:#fedb41;}.cls-2{fill:#ffd833;}.cls-3{fill:#feb432;}.cls-4{fill:#fea523;}.cls-5{fill:#fc3;}</style></defs><g id="Слой_2" data-name="Слой 2"><g id="Shop"><path class="cls-1" d="M64.25,0C29.08,0,0,28.58,0,63.75S29.08,128,64.25,128,128,98.93,128,63.75A63.79,63.79,0,0,0,64.25,0Z"/><path class="cls-2" d="M128,63.75C128,98.93,99.42,128,64.25,128V0A63.8,63.8,0,0,1,128,63.75Z"/><path class="cls-3" d="M64.25,15C37.4,15,15,36.9,15,63.75S37.4,113,64.25,113,113,90.6,113,63.75A48.84,48.84,0,0,0,64.25,15Z"/><path class="cls-4" d="M113,63.75C113,90.6,91.1,113,64.25,113V15A48.84,48.84,0,0,1,113,63.75Z"/><path class="cls-1" d="M71.75,60H68V45h3.75a3.71,3.71,0,0,1,3.75,3.75c0,5,7.5,5,7.5,0A11.23,11.23,0,0,0,71.75,37.5H68V33.75a3.75,3.75,0,0,0-7.5,0V37.5H56.25A11.23,11.23,0,0,0,45,48.75v7.5A11.23,11.23,0,0,0,56.25,67.5H60.5V83H56.25a3.71,3.71,0,0,1-3.75-3.75c0-5-7.5-5-7.5,0A11.23,11.23,0,0,0,56.25,90.5H60.5v3.75a3.75,3.75,0,0,0,7.5,0V90.5h3.75A11.23,11.23,0,0,0,83,79.25v-8A11.23,11.23,0,0,0,71.75,60ZM60.5,60H56.25a3.71,3.71,0,0,1-3.75-3.75v-7.5A3.71,3.71,0,0,1,56.25,45H60.5Zm15,19.25A3.71,3.71,0,0,1,71.75,83H68V67.5h3.75a3.71,3.71,0,0,1,3.75,3.75Z"/><path class="cls-5" d="M71.75,60H68V45h3.75a3.71,3.71,0,0,1,3.75,3.75c0,5,7.5,5,7.5,0A11.23,11.23,0,0,0,71.75,37.5H68V33.75A3.61,3.61,0,0,0,64.25,30V98A3.61,3.61,0,0,0,68,94.25V90.5h3.75A11.23,11.23,0,0,0,83,79.25v-8A11.23,11.23,0,0,0,71.75,60ZM75.5,79.25A3.71,3.71,0,0,1,71.75,83H68V67.5h3.75a3.71,3.71,0,0,1,3.75,3.75Z"/></g></g></svg>