<svg xmlns="http://www.w3.org/2000/svg" viewBox="0 0 112 96"><defs><style>.cls-1{fill:#fe9923;}.cls-2{fill:#fedb41;}.cls-3{fill:#fea832;}.cls-4{fill:#fc3;}</style></defs><g id="Слой_2" data-name="Слой 2"><g id="Menu"><path class="cls-1" d="M32,64C-10.67,63.28-10.66.71,32,0,74.67.72,74.66,63.29,32,64Z"/><path class="cls-2" d="M32,60C-10.09,59.3-10.09.7,32,0,74.09.7,74.09,59.3,32,60Z"/><path class="cls-3" d="M32,11.2C6.94,11.64,7,48.37,32,48.8,57.08,48.37,57.08,11.63,32,11.2Z"/><path class="cls-4" d="M32,15.2c-24.53.4-24.53,33.2,0,33.6C56.54,48.4,56.54,15.6,32,15.2Z"/><path class="cls-1" d="M80,64C37.33,63.28,37.34.71,80,0,122.67.72,122.66,63.29,80,64Z"/><path class="cls-2" d="M80,60C37.91,59.3,37.91.7,80,0,122.09.7,122.09,59.3,80,60Z"/><path class="cls-3" d="M80,11.2C54.94,11.64,55,48.37,80,48.8,105.08,48.37,105.08,11.63,80,11.2Z"/><path class="cls-4" d="M80,15.2c-24.53.4-24.53,33.2,0,33.6C104.54,48.4,104.54,15.6,80,15.2Z"/><path class="cls-1" d="M56,96c-42.67-.72-42.66-63.29,0-64C98.67,32.72,98.66,95.29,56,96Z"/><path class="cls-2" d="M56,92c-42.09-.7-42.09-59.3,0-60C98.09,32.7,98.09,91.3,56,92Z"/><path class="cls-3" d="M56,43.2C30.94,43.64,31,80.37,56,80.8,81.08,80.37,81.08,43.63,56,43.2Z"/><path class="cls-4" d="M56,47.2c-24.54.4-24.53,33.2,0,33.6C80.54,80.4,80.54,47.6,56,47.2Z"/></g></g></svg>