<svg xmlns="http://www.w3.org/2000/svg" viewBox="0 0 160 160.03"><defs><style>.cls-1{fill:#fff;opacity:0;}.cls-2{fill:#5cbeff;}.cls-3{fill:#4caff0;}.cls-4{fill:#459ed9;}.cls-5{fill:#3c8abd;}.cls-6{fill:#6ac4ff;}</style></defs><g id="Слой_2" data-name="Слой 2"><g id="Shop"><rect class="cls-1" y="0.03" width="160" height="160"/><polygon class="cls-2" points="80 0 150 40 150 120 80 160 10 120 10 40 80 0"/><polygon class="cls-3" points="80 80 80 0 150 40 80 80"/><polygon class="cls-4" points="150 40 150 120 80 80 150 40"/><polygon class="cls-3" points="10 40 10 40 80 80 80 80 10 120 10 120 10 40"/><polygon class="cls-5" points="80 80 150 120 80 160 80 80"/><polygon class="cls-4" points="80 160 10 120 80 80 80 160"/><polygon class="cls-2" points="40.49 102.57 40.49 57.43 80 34.85 119.5 57.43 119.5 102.57 80 125.15 40.49 102.57"/><polygon class="cls-6" points="40.49 102.57 40.49 57.43 80 34.85 80 125.15 40.49 102.57"/></g></g></svg>