<svg xmlns="http://www.w3.org/2000/svg" viewBox="0 0 80 80"><defs><style>.cls-1{opacity:0;}.cls-2{fill:#3477a3;}.cls-3{fill:#5cbeff;}.cls-4{fill:#4caff0;}.cls-5{fill:#459ed9;}.cls-6{fill:#3c8abd;}.cls-7{fill:#6ac4ff;}</style></defs><g id="Слой_2" data-name="Слой 2"><g id="Menu"><rect class="cls-1" width="80" height="80"/><polygon class="cls-2" points="40 0 5 20 5 60 40 80 75 60 75 20 40 0"/><polygon class="cls-3" points="40 0 75 18.5 75 55.5 40 74 5 55.5 5 18.5 40 0"/><polygon class="cls-4" points="40 37 40 0 75 18.5 40 37"/><polygon class="cls-5" points="75 18.5 75 55.5 40 37 75 18.5"/><polygon class="cls-4" points="5 18.5 5 18.5 40 37 40 37 5 55.5 5 55.5 5 18.5"/><polygon class="cls-6" points="40 37 75 55.5 40 74 40 37"/><polygon class="cls-5" points="40 74 5 55.5 40 37 40 74"/><polygon class="cls-3" points="20.25 47.44 20.25 26.56 40 16.12 59.75 26.56 59.75 47.44 40 57.88 20.25 47.44"/><polygon class="cls-7" points="20.25 47.44 20.25 26.56 40 16.12 40 57.88 20.25 47.44"/></g></g></svg>