<svg xmlns="http://www.w3.org/2000/svg" viewBox="0 0 192 39.76"><defs><style>.cls-1{fill:#cce4f1;}.cls-2{fill:#fafaff;}</style></defs><g id="Слой_2" data-name="Слой 2"><g id="Menu"><path class="cls-1" d="M182.49,38.42a10.44,10.44,0,0,1-3.16-1.76c-2.71-1.91-3.4-3-5.23-4.43a23.32,23.32,0,0,0-5.32-2.94,45.79,45.79,0,0,0-14.14-3.54,41.71,41.71,0,0,0-14,.66c-5.55,1.3-5.47,2.71-12.94,5.16-4.6,1.51-8.2,2.69-13,2.66-5.37,0-9.37-1.56-13-2.94-6.85-2.6-6.83-4.22-13.35-6.84A46.45,46.45,0,0,0,73.44,21,45.84,45.84,0,0,0,56,23.24a55.79,55.79,0,0,0-14.81,8.19C37.84,33.89,37,35,33.78,36.57a31.79,31.79,0,0,1-11.42,3.09,26.34,26.34,0,0,1-10.19-1A20.33,20.33,0,0,1,0,26.88v-1.8A21,21,0,0,1,13,5.6,21,21,0,0,1,20.76,4c83.82-.06,144.82,0,150,0a21.49,21.49,0,0,1,7.35,1.23A21,21,0,0,1,192,24.79c0,1.79,0,3.58,0,5.38v2a7.56,7.56,0,0,1-.4,2,7.12,7.12,0,0,1-1.53,2.5A6.43,6.43,0,0,1,188.13,38,8.61,8.61,0,0,1,182.49,38.42Z"/><path class="cls-2" d="M182.49,34.42a10.44,10.44,0,0,1-3.16-1.76c-2.71-1.91-3.4-3-5.23-4.43a23.32,23.32,0,0,0-5.32-2.94,45.79,45.79,0,0,0-14.14-3.54,41.71,41.71,0,0,0-14,.66c-5.55,1.3-5.47,2.71-12.94,5.16-4.6,1.51-8.2,2.69-13,2.66-5.37,0-9.37-1.56-13-2.94-6.85-2.6-6.83-4.22-13.35-6.84A46.45,46.45,0,0,0,73.44,17,45.84,45.84,0,0,0,56,19.24a55.79,55.79,0,0,0-14.81,8.19C37.84,29.89,37,31,33.78,32.57a31.79,31.79,0,0,1-11.42,3.09,26.34,26.34,0,0,1-10.19-1A20.33,20.33,0,0,1,0,22.88v-1.8A21,21,0,0,1,13,1.6,21,21,0,0,1,20.76,0c83.82-.06,144.82,0,150,0a21.49,21.49,0,0,1,7.35,1.23A21,21,0,0,1,192,20.79c0,1.79,0,3.58,0,5.38v2a7.56,7.56,0,0,1-.4,2,7.12,7.12,0,0,1-1.53,2.5A6.43,6.43,0,0,1,188.13,34,8.61,8.61,0,0,1,182.49,34.42Z"/></g></g></svg>