<svg xmlns="http://www.w3.org/2000/svg" viewBox="0 0 76 81"><defs><style>.cls-1{opacity:0.25;}.cls-2{fill:#fafaff;}</style></defs><g id="Слой_2" data-name="Слой 2"><g id="Pause"><g class="cls-1"><path d="M75.1,5.69A2.81,2.81,0,0,0,73,5L24.13,10.44a2.72,2.72,0,0,0-2.42,2.7V61.51a15.64,15.64,0,0,0-8.14-2.22C6.09,59.29,0,64.15,0,70.14S6.09,81,13.57,81s13.57-4.87,13.57-10.86v-41l43.43-4.84V56.08a15.67,15.67,0,0,0-8.14-2.22c-7.48,0-13.57,4.87-13.57,10.85S55,75.57,62.43,75.57,76,70.7,76,64.71v-57A2.74,2.74,0,0,0,75.1,5.69Z" transform="translate(0 0)"/></g><path class="cls-2" d="M75.1.69A2.81,2.81,0,0,0,73,0L24.13,5.44a2.72,2.72,0,0,0-2.42,2.7V56.51a15.64,15.64,0,0,0-8.14-2.22C6.09,54.29,0,59.15,0,65.14S6.09,76,13.57,76s13.57-4.87,13.57-10.86v-41l43.43-4.84V51.08a15.67,15.67,0,0,0-8.14-2.22c-7.48,0-13.57,4.87-13.57,10.85S55,70.57,62.43,70.57,76,65.7,76,59.71v-57A2.74,2.74,0,0,0,75.1.69Z" transform="translate(0 0)"/></g></g></svg>