<svg xmlns="http://www.w3.org/2000/svg" viewBox="0 0 160 32.57"><defs><style>.cls-1{fill:#cce4f1;}.cls-2{fill:#fafaff;}</style></defs><g id="Слой_2" data-name="Слой 2"><g id="Menu"><path class="cls-1" d="M152.09,31.46A8.62,8.62,0,0,1,149.45,30c-2.26-1.59-2.83-2.5-4.36-3.67a19.42,19.42,0,0,0-4.42-2.43A38.49,38.49,0,0,0,128.87,21a35.2,35.2,0,0,0-11.7.54c-4.62,1.08-4.55,2.25-10.78,4.28C102.56,27.05,99.56,28,95.52,28A29.46,29.46,0,0,1,84.7,25.57C79,23.42,79,22.07,73.57,19.91A38.84,38.84,0,0,0,61.21,17,38.18,38.18,0,0,0,46.7,18.91a46.64,46.64,0,0,0-12.35,6.77c-2.82,2-3.53,3-6.2,4.25a26.48,26.48,0,0,1-9.51,2.55,22,22,0,0,1-8.5-.85A16.89,16.89,0,0,1,0,21.92V20.81A18,18,0,0,1,11.75,4.14,18.49,18.49,0,0,1,18.29,3C25.1,3,74.42,3,142,3a18,18,0,0,1,18,18V26.3a4.21,4.21,0,0,1,0,.44,5.11,5.11,0,0,1-.3,1.24,5.39,5.39,0,0,1-2.88,3.17A7.23,7.23,0,0,1,152.09,31.46Z"/><path class="cls-2" d="M152.09,28.46A8.62,8.62,0,0,1,149.45,27c-2.26-1.59-2.83-2.5-4.36-3.67a19.42,19.42,0,0,0-4.42-2.43A38.49,38.49,0,0,0,128.87,18a35.2,35.2,0,0,0-11.7.54c-4.62,1.08-4.55,2.25-10.78,4.28C102.56,24.05,99.56,25,95.52,25A29.46,29.46,0,0,1,84.7,22.57C79,20.42,79,19.07,73.57,16.91A38.84,38.84,0,0,0,61.21,14,38.18,38.18,0,0,0,46.7,15.91a46.64,46.64,0,0,0-12.35,6.77c-2.82,2-3.53,3-6.2,4.25a26.48,26.48,0,0,1-9.51,2.55,22,22,0,0,1-8.5-.85A16.89,16.89,0,0,1,0,18.92V17.81A18,18,0,0,1,11.75,1.14,18.49,18.49,0,0,1,18.29,0C25.1,0,74.42,0,142,0a18,18,0,0,1,18,18V23.3a4.21,4.21,0,0,1,0,.44,5.11,5.11,0,0,1-.3,1.24,5.39,5.39,0,0,1-2.88,3.17A7.23,7.23,0,0,1,152.09,28.46Z"/></g></g></svg>