<svg xmlns="http://www.w3.org/2000/svg" viewBox="0 0 76 73"><defs><style>.cls-1{opacity:0.35;}.cls-2,.cls-3{opacity:0;}.cls-3,.cls-4{fill:#e3e7f1;}</style></defs><g id="Слой_2" data-name="Слой 2"><g id="Pause"><g class="cls-1"><rect class="cls-2" y="5" width="76" height="68"/><path d="M57.83,27.36l-.73-.78a1,1,0,0,0-1.46,0l-2.45,2.8a1,1,0,0,0,0,1.32,12,12,0,0,1,.4,16.09,3.94,3.94,0,0,1-.38.45,1,1,0,0,0,0,1.33l2.44,2.79a1,1,0,0,0,1.48,0A17.73,17.73,0,0,0,57.83,27.36Z"/><path d="M67.89,17.72c-.4-.42-.81-.83-1.22-1.22a1,1,0,0,0-1.43,0L62.71,19.3a1,1,0,0,0,0,1.38,26.06,26.06,0,0,1,.91,35.7,11.31,11.31,0,0,1-.9.94,1,1,0,0,0,0,1.39l2.51,2.74a1,1,0,0,0,1.44,0A31.86,31.86,0,0,0,67.89,17.72Z"/><path d="M44.2,5.31a2.88,2.88,0,0,0-2.92.19L16.08,22.68H2.82A2.79,2.79,0,0,0,0,25.54V52.46a2.79,2.79,0,0,0,2.82,2.87H16.08l25.2,17.18a2.84,2.84,0,0,0,3.95-.76,3.29,3.29,0,0,0,.47-1.63V7.79A2.74,2.74,0,0,0,44.2,5.31Z"/></g><rect class="cls-3" width="76" height="68"/><path class="cls-4" d="M57.83,22.36l-.73-.78a1,1,0,0,0-1.46,0l-2.45,2.8a1,1,0,0,0,0,1.32,12,12,0,0,1,.4,16.09,3.94,3.94,0,0,1-.38.45,1,1,0,0,0,0,1.33l2.44,2.79a1,1,0,0,0,1.48,0A17.73,17.73,0,0,0,57.83,22.36Z"/><path class="cls-4" d="M67.89,12.72c-.4-.42-.81-.83-1.22-1.22a1,1,0,0,0-1.43,0L62.71,14.3a1,1,0,0,0,0,1.38,26.06,26.06,0,0,1,.91,35.7,11.31,11.31,0,0,1-.9.94,1,1,0,0,0,0,1.39l2.51,2.74a1,1,0,0,0,1.44,0A31.86,31.86,0,0,0,67.89,12.72Z"/><path class="cls-4" d="M44.2.31A2.88,2.88,0,0,0,41.28.5L16.08,17.68H2.82A2.79,2.79,0,0,0,0,20.54V47.46a2.79,2.79,0,0,0,2.82,2.87H16.08l25.2,17.18a2.84,2.84,0,0,0,3.95-.76,3.29,3.29,0,0,0,.47-1.63V2.79A2.74,2.74,0,0,0,44.2.31Z"/></g></g></svg>