<svg xmlns="http://www.w3.org/2000/svg" viewBox="0 0 64 64"><defs><style>.cls-1{fill:#529a52;}.cls-2{fill:#60b460;}.cls-3{fill:#e3e7f1;}</style></defs><g id="Слой_2" data-name="Слой 2"><g id="Shop"><rect class="cls-1" width="64" height="64" rx="6"/><rect class="cls-2" y="0.01" width="64" height="58" rx="6"/><path class="cls-1" d="M33.77,30.42v-12a1.25,1.25,0,0,0-1.24-1.25H31.47a1.25,1.25,0,0,0-1.24,1.25v12h-12a1.25,1.25,0,0,0-1.25,1.24v1.06A1.25,1.25,0,0,0,18.19,34h12V46a1.25,1.25,0,0,0,.36.88,1.23,1.23,0,0,0,.88.37h1.06a1.23,1.23,0,0,0,.88-.37,1.25,1.25,0,0,0,.36-.88V34h12a1.23,1.23,0,0,0,.88-.36h0a1.23,1.23,0,0,0,.37-.88V31.66a1.23,1.23,0,0,0-.37-.88,1.25,1.25,0,0,0-.88-.36Z"/><path class="cls-3" d="M33.77,27.42v-12a1.25,1.25,0,0,0-1.24-1.25H31.47a1.25,1.25,0,0,0-1.24,1.25v12h-12a1.25,1.25,0,0,0-1.25,1.24v1.06A1.25,1.25,0,0,0,18.19,31h12V43a1.25,1.25,0,0,0,.36.88,1.23,1.23,0,0,0,.88.37h1.06a1.23,1.23,0,0,0,.88-.37,1.25,1.25,0,0,0,.36-.88V31h12a1.23,1.23,0,0,0,.88-.36h0a1.23,1.23,0,0,0,.37-.88V28.66a1.23,1.23,0,0,0-.37-.88,1.25,1.25,0,0,0-.88-.36Z"/></g></g></svg>