<svg xmlns="http://www.w3.org/2000/svg" viewBox="0 0 130.76 105.32"><defs><style>.cls-1{opacity:0.18;}.cls-2{fill:#fff;}</style></defs><g id="Слой_2" data-name="Слой 2"><g id="Shop"><g class="cls-1"><path d="M0,9.46v92.4a3.48,3.48,0,0,0,3.5,3.46H127.26a3.48,3.48,0,0,0,3.5-3.46V9.46A3.48,3.48,0,0,0,127.26,6H3.5A3.48,3.48,0,0,0,0,9.46Zm58.22,4.25H73.44V23.84H58.22Zm-25.53,0H47.92V23.84H32.69ZM21.94,97.85H6.72V87.73H21.94Zm.45-74H7.17V13.71H22.39Zm25.08,74H32.24V87.73H47.47Zm25.52,0H57.77V87.73H73Zm3.82-37L54,73.15c-5.31,2.85-9.61,0-9.61-6.4V44.58c0-6.39,4.3-9.26,9.61-6.4L76.81,50.49C82.12,53.35,82.12,58,76.81,60.83Zm21.71,37H83.29V87.73H98.52Zm.45-74H83.74V13.71H99Zm25.07,74H108.82V87.73H124Zm.45-74H109.27V13.71h15.22Z"/></g><path class="cls-2" d="M0,3.46v92.4a3.48,3.48,0,0,0,3.5,3.46H127.26a3.48,3.48,0,0,0,3.5-3.46V3.46A3.48,3.48,0,0,0,127.26,0H3.5A3.48,3.48,0,0,0,0,3.46ZM58.22,7.71H73.44V17.84H58.22Zm-25.53,0H47.92V17.84H32.69ZM21.94,91.85H6.72V81.73H21.94Zm.45-74H7.17V7.71H22.39Zm25.08,74H32.24V81.73H47.47Zm25.52,0H57.77V81.73H73Zm3.82-37L54,67.15c-5.31,2.85-9.61,0-9.61-6.4V38.58c0-6.39,4.3-9.26,9.61-6.4L76.81,44.49C82.12,47.35,82.12,52,76.81,54.83Zm21.71,37H83.29V81.73H98.52Zm.45-74H83.74V7.71H99Zm25.07,74H108.82V81.73H124Zm.45-74H109.27V7.71h15.22Z"/></g></g></svg>