<svg xmlns="http://www.w3.org/2000/svg" viewBox="0 0 130.76 104.32"><defs><style>.cls-1{opacity:0.35;}.cls-2{fill:#e3e7f1;}</style></defs><g id="Слой_2" data-name="Слой 2"><g id="Menu"><g class="cls-1"><path d="M0,8.46v92.4a3.48,3.48,0,0,0,3.5,3.46H127.26a3.48,3.48,0,0,0,3.5-3.46V8.46A3.48,3.48,0,0,0,127.26,5H3.5A3.48,3.48,0,0,0,0,8.46Zm58.22,4.25H73.44V22.84H58.22Zm-25.53,0H47.92V22.84H32.69ZM21.94,96.85H6.72V86.73H21.94Zm.45-74H7.17V12.71H22.39Zm25.08,74H32.24V86.73H47.47Zm25.52,0H57.77V86.73H73Zm7.09-36.79L57.21,72.37c-5.3,2.86-9.61,0-9.61-6.4V43.8c0-6.39,4.3-9.25,9.61-6.4L80.08,49.71C85.38,52.57,85.38,57.21,80.08,60.06ZM98.52,96.85H83.29V86.73H98.52Zm.45-74H83.74V12.71H99Zm25.07,74H108.82V86.73H124Zm.45-74H109.27V12.71h15.22Z"/></g><path class="cls-2" d="M0,3.46v92.4a3.48,3.48,0,0,0,3.5,3.46H127.26a3.48,3.48,0,0,0,3.5-3.46V3.46A3.48,3.48,0,0,0,127.26,0H3.5A3.48,3.48,0,0,0,0,3.46ZM58.22,7.71H73.44V17.84H58.22Zm-25.53,0H47.92V17.84H32.69ZM21.94,91.85H6.72V81.73H21.94Zm.45-74H7.17V7.71H22.39Zm25.08,74H32.24V81.73H47.47Zm25.52,0H57.77V81.73H73Zm7.09-36.79L57.21,67.37c-5.3,2.86-9.61,0-9.61-6.4V38.8c0-6.39,4.3-9.25,9.61-6.4L80.08,44.71C85.38,47.57,85.38,52.21,80.08,55.06ZM98.52,91.85H83.29V81.73H98.52Zm.45-74H83.74V7.71H99Zm25.07,74H108.82V81.73H124Zm.45-74H109.27V7.71h15.22Z"/></g></g></svg>