<svg xmlns="http://www.w3.org/2000/svg" viewBox="0 0 768 768"><defs><style>.cls-1{opacity:0;}.cls-2{fill:#cba370;}.cls-3{fill:#e8d8cf;}.cls-4{fill:#524029;}</style></defs><g id="Слой_2" data-name="Слой 2"><g id="Characters"><rect class="cls-1" width="768" height="768"/><rect class="cls-2" x="163.8" y="156.2" width="440.39" height="440" rx="42" transform="translate(7.8 760.2) rotate(-90)"/><rect class="cls-3" x="163.85" y="362.44" width="440.39" height="27.5" transform="translate(7.85 760.24) rotate(-90)"/><rect class="cls-2" x="166.36" y="374.73" width="435.55" height="2.94" transform="translate(7.93 760.33) rotate(-90)"/><rect class="cls-2" x="164" y="629.53" width="440" height="110.47"/><path class="cls-4" d="M409.88,669.24h-51l-2.91-2.85q0-6.15.05-12.28l2.86-2.91h51l3.09,2.93v12.21Z"/><path class="cls-4" d="M537.06,722.7h2.88V703.23h2.15l-3.6-3.59-3.6,3.59h2.17Z"/><rect class="cls-4" x="534.17" y="725.62" width="20.2" height="2.88"/><path class="cls-4" d="M548.61,722.71h2.88V703.23h2.16L550,699.64l-3.6,3.58h2.17Z"/><path class="cls-4" d="M524.05,693.84v39.7h40.41v-39.7Zm39,38.28H525.51V695.28H563Z"/><path class="cls-4" d="M498.1,727.79h-2.88l-.72,1.43h8.64l-.72-1.44h-2.88q0-6.51,0-13l5.77-5.07V699.61l-4.29,0-1.45,2.13,1.45,0-3.63,3.62c.48-1,1-1.93,1.45-2.89h-1.44l1.38-2.87-6.42,0V709.7l5.79,5.07Z"/><path class="cls-4" d="M478.64,693.86v39.7H519v-39.7Zm39,38.28H480.1V695.31h37.51Z"/></g></g></svg>