<svg xmlns="http://www.w3.org/2000/svg" viewBox="0 0 768 768"><defs><style>.cls-1{opacity:0;}.cls-2{fill:#e9c2a6;}.cls-3{fill:#ff9e22;}.cls-4{fill:#34539e;}.cls-5{fill:#352823;}.cls-6{fill:#543128;}.cls-7{fill:#fff;}.cls-8{fill:#221f27;}.cls-9{fill:#ffd500;}</style></defs><g id="Слой_2" data-name="Слой 2"><g id="Characters"><rect class="cls-1" width="768" height="768"/><path class="cls-2" d="M270,245H498a14,14,0,0,1,14,14V740a0,0,0,0,1,0,0H256a0,0,0,0,1,0,0V259A14,14,0,0,1,270,245Z"/><path class="cls-3" d="M512,693.24H256V491.75H512Z"/><rect class="cls-4" x="256" y="693.24" width="256" height="46.76"/><ellipse class="cls-5" cx="429.53" cy="325.55" rx="20.31" ry="20.36"/><rect class="cls-5" x="405.46" y="287.43" width="58.1" height="13.8" rx="2"/><ellipse class="cls-5" cx="338.72" cy="325.55" rx="20.31" ry="20.36"/><rect class="cls-5" x="304.63" y="287.43" width="58.1" height="13.8" rx="2"/><path class="cls-6" d="M470.21,458.79,415.31,404l-62.62,0-54.9,54.66H256v33H512v-33ZM408.58,419a2,2,0,0,1-2,2H361.41a2,2,0,0,1-2-2v-1.52a2,2,0,0,1,2-2h45.18a2,2,0,0,1,2,2Z"/><path class="cls-6" d="M512,287.43a71.28,71.28,0,0,0-21.71-14.38A72.47,72.47,0,0,0,464,267.59c-19.73-.68-77.65-1.27-155.92-.56a85.87,85.87,0,0,0-52,20.4V247.27c.29-4.54,1.53-10.13,5.64-14.12,4.87-4.72,11.52-5.15,13.59-5.15H492.77A19.25,19.25,0,0,1,512,247.27Z"/><polygon class="cls-7" points="512 644.83 477.03 644.83 477.03 491.75 454.4 491.75 454.4 644.83 313.67 644.83 313.67 491.75 291.04 491.75 291.04 644.83 256 644.83 256 667.43 291.04 667.43 291.04 693.24 313.67 693.24 313.67 667.43 454.4 667.43 454.4 693.24 477.03 693.24 477.03 667.43 512 667.43 512 644.83"/><rect class="cls-8" x="382.52" y="491.75" width="2.96" height="201.49"/><path class="cls-9" d="M462,157.43l-27.37-17.64L405.44,132l-42.72.29-30.08,7.54-27.58,18.76-21.35,28.74L268.41,213,249,228H519l-20.19-16.95L481.2,182.69Z"/></g></g></svg>