<svg xmlns="http://www.w3.org/2000/svg" viewBox="0 0 80 85"><defs><style>.cls-1{fill:#6daf00;}.cls-2{fill:#fedb41;}.cls-3{fill:#ffd833;}.cls-4{fill:#feb432;}.cls-5{fill:#fea523;}.cls-6{fill:#fc3;}</style></defs><g id="Слой_2" data-name="Слой 2"><g id="Shop"><path class="cls-1" d="M40.16,5C18.17,5,0,22.86,0,44.84A40.41,40.41,0,0,0,40.16,85C62.14,85,80,66.83,80,44.84A39.87,39.87,0,0,0,40.16,5Z"/><path class="cls-1" d="M80,44.84C80,66.83,62.14,85,40.16,85V5A39.87,39.87,0,0,1,80,44.84Z"/><path class="cls-1" d="M40.16,14.38c-16.79,0-30.79,13.68-30.79,30.46A31.07,31.07,0,0,0,40.16,75.63c16.78,0,30.47-14,30.47-30.79A30.52,30.52,0,0,0,40.16,14.38Z"/><path class="cls-1" d="M70.63,44.84c0,16.79-13.69,30.79-30.47,30.79V14.38A30.52,30.52,0,0,1,70.63,44.84Z"/><path class="cls-1" d="M44.84,42.5H42.5V33.13h2.34a2.32,2.32,0,0,1,2.35,2.34,2.35,2.35,0,0,0,4.69,0,7,7,0,0,0-7-7H42.5V26.09a2.35,2.35,0,0,0-4.69,0v2.35H35.16a7,7,0,0,0-7,7v4.69a7,7,0,0,0,7,7h2.65v9.69H35.16a2.33,2.33,0,0,1-2.35-2.35,2.35,2.35,0,0,0-4.69,0,7,7,0,0,0,7,7h2.65v2.35a2.35,2.35,0,0,0,4.69,0V61.56h2.34a7,7,0,0,0,7-7v-5A7,7,0,0,0,44.84,42.5Zm-7,0H35.16a2.32,2.32,0,0,1-2.35-2.34V35.47a2.32,2.32,0,0,1,2.35-2.34h2.65Zm9.38,12a2.33,2.33,0,0,1-2.35,2.35H42.5V47.19h2.34a2.32,2.32,0,0,1,2.35,2.34Z"/><path class="cls-1" d="M44.84,42.5H42.5V33.13h2.34a2.32,2.32,0,0,1,2.35,2.34,2.35,2.35,0,0,0,4.69,0,7,7,0,0,0-7-7H42.5V26.09a2.26,2.26,0,0,0-2.34-2.34v42.5a2.26,2.26,0,0,0,2.34-2.34V61.56h2.34a7,7,0,0,0,7-7v-5A7,7,0,0,0,44.84,42.5Zm2.35,12a2.33,2.33,0,0,1-2.35,2.35H42.5V47.19h2.34a2.32,2.32,0,0,1,2.35,2.34Z"/><path class="cls-2" d="M40.16,0C18.17,0,0,17.86,0,39.84A40.41,40.41,0,0,0,40.16,80C62.14,80,80,61.83,80,39.84A39.87,39.87,0,0,0,40.16,0Z"/><path class="cls-3" d="M80,39.84C80,61.83,62.14,80,40.16,80V0A39.87,39.87,0,0,1,80,39.84Z"/><path class="cls-4" d="M40.16,9.38C23.37,9.38,9.37,23.06,9.37,39.84A31.07,31.07,0,0,0,40.16,70.63c16.78,0,30.47-14,30.47-30.79A30.52,30.52,0,0,0,40.16,9.38Z"/><path class="cls-5" d="M70.63,39.84c0,16.79-13.69,30.79-30.47,30.79V9.38A30.52,30.52,0,0,1,70.63,39.84Z"/><path class="cls-2" d="M44.84,37.5H42.5V28.13h2.34a2.32,2.32,0,0,1,2.35,2.34,2.35,2.35,0,0,0,4.69,0,7,7,0,0,0-7-7H42.5V21.09a2.35,2.35,0,0,0-4.69,0v2.35H35.16a7,7,0,0,0-7,7v4.69a7,7,0,0,0,7,7h2.65v9.69H35.16a2.33,2.33,0,0,1-2.35-2.35,2.35,2.35,0,0,0-4.69,0,7,7,0,0,0,7,7h2.65v2.35a2.35,2.35,0,0,0,4.69,0V56.56h2.34a7,7,0,0,0,7-7v-5A7,7,0,0,0,44.84,37.5Zm-7,0H35.16a2.32,2.32,0,0,1-2.35-2.34V30.47a2.32,2.32,0,0,1,2.35-2.34h2.65Zm9.38,12a2.33,2.33,0,0,1-2.35,2.35H42.5V42.19h2.34a2.32,2.32,0,0,1,2.35,2.34Z"/><path class="cls-6" d="M44.84,37.5H42.5V28.13h2.34a2.32,2.32,0,0,1,2.35,2.34,2.35,2.35,0,0,0,4.69,0,7,7,0,0,0-7-7H42.5V21.09a2.26,2.26,0,0,0-2.34-2.34v42.5a2.26,2.26,0,0,0,2.34-2.34V56.56h2.34a7,7,0,0,0,7-7v-5A7,7,0,0,0,44.84,37.5Zm2.35,12a2.33,2.33,0,0,1-2.35,2.35H42.5V42.19h2.34a2.32,2.32,0,0,1,2.35,2.34Z"/></g></g></svg>