<svg xmlns="http://www.w3.org/2000/svg" viewBox="0 0 80 85"><defs><style>.cls-1,.cls-2{fill:#6daf00;}.cls-1,.cls-3{opacity:0;}.cls-3{fill:#fff;}.cls-4{fill:#5cbeff;}.cls-5{fill:#4caff0;}.cls-6{fill:#459ed9;}.cls-7{fill:#3c8abd;}.cls-8{fill:#6ac4ff;}</style></defs><g id="Слой_2" data-name="Слой 2"><g id="Shop"><rect class="cls-1" y="5.01" width="80" height="79.99"/><polygon class="cls-2" points="40 5 75 25 75 64.99 40 84.98 5 64.99 5 25 40 5"/><polygon class="cls-2" points="40 44.99 40 5 75 25 40 44.99"/><polygon class="cls-2" points="75 25 75 64.99 40 44.99 75 25"/><polygon class="cls-2" points="5 25 5 25 40 44.99 40 44.99 5 64.99 5 64.99 5 25"/><polygon class="cls-2" points="40 44.99 75 64.99 40 84.98 40 44.99"/><polygon class="cls-2" points="40 84.98 5 64.99 40 44.99 40 84.98"/><polygon class="cls-2" points="20.25 56.27 20.25 33.71 40 22.42 59.75 33.71 59.75 56.27 40 67.56 20.25 56.27"/><polygon class="cls-2" points="20.25 56.27 20.25 33.71 40 22.42 40 67.56 20.25 56.27"/><rect class="cls-3" y="0.01" width="80" height="79.99"/><polygon class="cls-4" points="40 0 75 20 75 59.99 40 79.98 5 59.99 5 20 40 0"/><polygon class="cls-5" points="40 39.99 40 0 75 20 40 39.99"/><polygon class="cls-6" points="75 20 75 59.99 40 39.99 75 20"/><polygon class="cls-5" points="5 20 5 20 40 39.99 40 39.99 5 59.99 5 59.99 5 20"/><polygon class="cls-7" points="40 39.99 75 59.99 40 79.98 40 39.99"/><polygon class="cls-6" points="40 79.98 5 59.99 40 39.99 40 79.98"/><polygon class="cls-4" points="20.25 51.27 20.25 28.71 40 17.42 59.75 28.71 59.75 51.27 40 62.56 20.25 51.27"/><polygon class="cls-8" points="20.25 51.27 20.25 28.71 40 17.42 40 62.56 20.25 51.27"/></g></g></svg>