<svg xmlns="http://www.w3.org/2000/svg" viewBox="0 0 42 57"><defs><style>.cls-1{opacity:0.18;}.cls-2{fill:#fff;}</style></defs><g id="Слой_2" data-name="Слой 2"><g id="Shop"><g class="cls-1"><path d="M38.49,25.62H36.66V18.16A15.43,15.43,0,0,0,21,3,15.44,15.44,0,0,0,5.33,18.16v7.46H3.51A3.45,3.45,0,0,0,0,29V53.6A3.45,3.45,0,0,0,3.51,57h35A3.45,3.45,0,0,0,42,53.6h0V29h0A3.45,3.45,0,0,0,38.49,25.62ZM31.4,18.16v7.46H10.6V18.16A10.25,10.25,0,0,1,21,8.1,10.25,10.25,0,0,1,31.4,18.16Z"/></g><path class="cls-2" d="M38.49,22.62H36.66V15.16A15.43,15.43,0,0,0,21,0,15.44,15.44,0,0,0,5.33,15.16v7.46H3.51A3.45,3.45,0,0,0,0,26V50.6A3.45,3.45,0,0,0,3.51,54h35A3.45,3.45,0,0,0,42,50.6h0V26h0A3.45,3.45,0,0,0,38.49,22.62ZM31.4,15.16v7.46H10.6V15.16A10.25,10.25,0,0,1,21,5.1,10.25,10.25,0,0,1,31.4,15.16Z"/></g></g></svg>