<svg xmlns="http://www.w3.org/2000/svg" viewBox="0 0 768 768"><defs><style>.cls-1{opacity:0;}.cls-2{fill:#e9c2a6;}.cls-3{fill:#8d73cd;}.cls-4{fill:#564681;}.cls-5{fill:#352823;}.cls-6{fill:#f0f0f0;}.cls-7{fill:#725ea8;}.cls-8{fill:#fff;}</style></defs><g id="Слой_2" data-name="Слой 2"><g id="Characters"><rect class="cls-1" width="768" height="768"/><path class="cls-2" d="M268.85,244.38h228a14,14,0,0,1,14,14V739.31a0,0,0,0,1,0,0h-256a0,0,0,0,1,0,0V258.38A14,14,0,0,1,268.85,244.38Z"/><path class="cls-3" d="M510.85,739.31h-256V523h256Z"/><path class="cls-4" d="M459.8,568.59A98.34,98.34,0,0,1,432,614.16,107.62,107.62,0,0,1,383.13,640a107.91,107.91,0,0,1-50.62-27.09,98.33,98.33,0,0,1-26.62-44.52Q307,545.69,308,523h151Z"/><ellipse class="cls-5" cx="428.37" cy="324.85" rx="20.31" ry="20.36"/><rect class="cls-6" x="404.31" y="286.73" width="58.1" height="13.8" rx="2"/><ellipse class="cls-5" cx="337.57" cy="324.85" rx="20.31" ry="20.36"/><rect class="cls-6" x="303.48" y="286.73" width="58.1" height="13.8" rx="2"/><path class="cls-6" d="M510.85,286.73a71.59,71.59,0,0,0-21.71-14.37,72.51,72.51,0,0,0-26.33-5.46c-19.74-.68-77.66-1.27-155.93-.56a85.95,85.95,0,0,0-52,20.39V246.59c.29-4.55,1.52-10.14,5.64-14.13,4.87-4.72,11.51-5.15,13.58-5.15H491.62a19.25,19.25,0,0,1,19.23,19.28Z"/><path class="cls-7" d="M436.48,582.34a73.46,73.46,0,0,1-53.58,52.8,73.41,73.41,0,0,1-54-53l1.5-33.54H436Q436.22,565.47,436.48,582.34Z"/><path class="cls-6" d="M469.06,458.08l-54.91-54.75-62.61,0L296.63,458H254.85v64.76l.05,4.61a7.79,7.79,0,0,0,12.46,6.37,17,17,0,0,0,5.7,16.68c7.27,6,16.19,3,16.6,2.89a19.16,19.16,0,0,0,7.62,11.87c8.47,5.87,18.23,1.73,18.8,1.47a19,19,0,0,0,8.47,13.53c8.08,5,16.56,1.43,17.25,1.12a19.21,19.21,0,0,0,8.27,10.7,19.6,19.6,0,0,0,16,1.57,18.88,18.88,0,0,0,6.41,6.58,19.07,19.07,0,0,0,9.63,2.81,21.42,21.42,0,0,0,18.5-9.73,17.92,17.92,0,0,0,22.79-12.41,17.48,17.48,0,0,0,17.59-.48c7.48-4.7,8-13.18,8.07-14,.43.22,9.57,4.71,18-.64a18.51,18.51,0,0,0,8-12.62,17,17,0,0,0,23.31-15.82c1.37,0,5.63-.16,8.72-3.24,3.29-3.27,3.62-8.25,3.76-10.32,0-.41,0-.76,0-1V458Zm-110.8-41.26a2,2,0,0,1,2-2h45.17a2,2,0,0,1,2,2v1.52a2,2,0,0,1-2,2H360.26a2,2,0,0,1-2-2Z"/><path class="cls-3" d="M539.78,227.25c-21.52,0-299.64.14-305.69,0a36.85,36.85,0,0,1-4.65-.5c-2.6-.44-4.16-.72-5.81-1.8-1-.64-2.69-1.76-2.63-3,.09-1.65,3.23-2.79,6.79-3.82a102,102,0,0,1,17.59-3.42L260.19,213q11.7-1.31,23.35-2.56A39,39,0,0,0,301.05,205c5.46-3.35,10-8.11,15-17,7.48-13.3,7.95-23.36,12.83-37.68q6.35-18.58,12.7-37.17a126.78,126.78,0,0,1,26.82-46.4,128.5,128.5,0,0,1,61.32-37.3c12.3-2.76,15.25-2.23,15.65-1.22s-2.44,2.81-6.48,7.57a54.74,54.74,0,0,0-6.48,9.61,58.5,58.5,0,0,0-5.93,16.44c-2,9.2-1.7,16.39-1.25,26.05a125.64,125.64,0,0,0,1.39,14.1,119.34,119.34,0,0,0,3.48,14.86c2.46,8.51,5.14,17.94,8.47,29.74,4.14,14,6.22,21,7.06,23.46,6.23,18.27,8.23,22.14,10.63,25.26,2.57,3.35,8.79,11.44,19.26,14.66,7.66,2.36,18.84,2.5,18.84,2.5,7.46.73,13.52,1.17,17.75,1.44,3,.2,8.27.5,15.22,1.39a57.66,57.66,0,0,1,9.8,2c2.88.87,9.91,3,9.86,5.57,0,1.05-1.2,1.91-2.45,2.77A10.35,10.35,0,0,1,539.78,227.25Z"/><polygon class="cls-8" points="334.46 188.63 331.7 185.55 327.76 186.85 329.64 182.37 327.81 178.36 331.73 178.67 334.54 174.89 335.08 179.56 338.65 181.24 335.06 183.81 334.46 188.63"/><polygon class="cls-8" points="388.45 194.32 384.97 189.58 379.09 189.76 382.52 184.99 380.54 179.46 386.14 181.25 390.79 177.65 390.82 183.53 395.68 186.83 390.1 188.68 388.45 194.32"/><polygon class="cls-8" points="347.77 127.72 346.13 124.74 343.39 126.76 344.97 121.56 344.02 117.42 346.63 117.18 348.78 112.6 348.82 117.66 351.1 118.96 348.51 122.33 347.77 127.72"/><polygon class="cls-8" points="409.69 125.6 403.98 122.86 398.81 126.52 399.27 119.65 394.46 115.21 400.46 113.71 402.66 107.31 405.9 113.25 412.07 113.73 408.07 118.91 409.69 125.6"/><polygon class="cls-8" points="425.56 166.78 421.75 163.28 416.77 164.66 418.86 159.69 416.19 155.16 421.28 155.59 424.61 151.4 425.68 156.64 430.4 158.58 425.97 161.4 425.56 166.78"/><polygon class="cls-8" points="362.3 202.48 369.36 203.41 376.47 203.12 375.08 204.34 380.78 205.5 372.85 205.33 369.26 206.34 365.76 205.01 357.84 204.47 363.61 203.82 362.3 202.48"/></g></g></svg>