<svg xmlns="http://www.w3.org/2000/svg" viewBox="0 0 768 768"><defs><style>.cls-1{opacity:0;}.cls-2{fill:#e9c2a6;}.cls-3{fill:#4c649e;}.cls-4{fill:#221f27;}.cls-5{fill:#f2f2f2;}.cls-6{fill:#d9d9d9;}.cls-7{fill:#352823;}.cls-8{fill:#573535;}.cls-9{fill:#543128;}</style></defs><g id="Слой_2" data-name="Слой 2"><g id="Characters"><rect class="cls-1" width="768" height="768"/><path class="cls-2" d="M270,244.79H498a14,14,0,0,1,14,14v481a0,0,0,0,1,0,0H256a0,0,0,0,1,0,0v-481A14,14,0,0,1,270,244.79Z"/><rect class="cls-3" x="256.03" y="693" width="256" height="46.76"/><rect class="cls-4" x="256.03" y="679.32" width="256" height="13.68"/><path class="cls-5" d="M512,679.32H256V491.51l128.34,18.21L512,491.51Z"/><rect class="cls-6" x="364.25" y="677.25" width="39.56" height="17.81"/><path class="cls-6" d="M512,497.29,384.37,515.93,256,497.29v-5.78l128.34,18.21L512,491.51Z"/><ellipse class="cls-7" cx="429.56" cy="325.3" rx="20.31" ry="20.36"/><rect class="cls-7" x="405.49" y="287.18" width="58.1" height="13.8" rx="2"/><ellipse class="cls-7" cx="338.75" cy="325.3" rx="20.31" ry="20.36"/><rect class="cls-7" x="304.66" y="287.18" width="58.1" height="13.8" rx="2"/><rect class="cls-8" x="351.96" y="403.89" width="64.19" height="7.18" rx="2"/><path class="cls-9" d="M512,287.18a70,70,0,0,0-48-19.83c-19.74-.68-77.65-1.27-155.92-.56a85.94,85.94,0,0,0-52,20.39V247c.29-4.54,1.53-10.14,5.64-14.13,4.87-4.71,11.52-5.14,13.59-5.14H492.8A19.25,19.25,0,0,1,512,247Z"/></g></g></svg>