<svg xmlns="http://www.w3.org/2000/svg" viewBox="0 0 68 68"><defs><style>.cls-1{fill:#6daf00;}.cls-2{fill:#7dc900;}.cls-3{fill:#fff;}</style></defs><g id="Слой_2" data-name="Слой 2"><g id="Shop"><rect class="cls-1" width="68" height="68" rx="9"/><rect class="cls-2" y="0.01" width="68" height="62" rx="9"/><path class="cls-1" d="M35.88,32.13V19.34a1.31,1.31,0,0,0-.38-.94,1.35,1.35,0,0,0-.94-.39H33.44a1.33,1.33,0,0,0-.94.39,1.31,1.31,0,0,0-.38.94V32.13H19.32A1.33,1.33,0,0,0,18,33.45v1.12a1.33,1.33,0,0,0,1.32,1.33h12.8V48.69A1.33,1.33,0,0,0,33.44,50h1.12a1.32,1.32,0,0,0,.94-.38,1.34,1.34,0,0,0,.38-.94V35.9h12.8a1.31,1.31,0,0,0,.93-.39h0a1.32,1.32,0,0,0,.39-.94V33.45a1.33,1.33,0,0,0-1.32-1.32Z"/><path class="cls-3" d="M35.88,29.13V16.34a1.31,1.31,0,0,0-.38-.94,1.35,1.35,0,0,0-.94-.39H33.44a1.33,1.33,0,0,0-.94.39,1.31,1.31,0,0,0-.38.94V29.13H19.32A1.33,1.33,0,0,0,18,30.45v1.12a1.33,1.33,0,0,0,1.32,1.33h12.8V45.69A1.33,1.33,0,0,0,33.44,47h1.12a1.32,1.32,0,0,0,.94-.38,1.34,1.34,0,0,0,.38-.94V32.9h12.8a1.31,1.31,0,0,0,.93-.39h0a1.32,1.32,0,0,0,.39-.94V30.45a1.33,1.33,0,0,0-1.32-1.32Z"/></g></g></svg>