<svg xmlns="http://www.w3.org/2000/svg" viewBox="0 0 768 768"><defs><style>.cls-1{opacity:0;}.cls-2{fill:#3282b8;}.cls-3{fill:#323232;}.cls-4{fill:#f64b3c;}.cls-5{fill:#f0a500;}.cls-6{fill:#fddb3a;}</style></defs><g id="Слой_2" data-name="Слой 2"><g id="Characters"><rect class="cls-1" width="768" height="768"/><rect class="cls-2" x="164" y="156" width="440" height="440.41" rx="44"/><path class="cls-3" d="M604,311.14V294.42l-5.16,5.25H465.59l-5.76-5.07V160.1l4.48-4.1h-14.8l4.09,4.08V294.53L448,299.67H319l-5.23-5.22V160.14L318,156H303.4l4.1,4.05v134.4l-5.18,5.22H168.17L164,295.49V310l4.11-4.09H302.33l5.17,5.19V440.25l-6.18,5.65H168.09L164,442.3v13.63l4-3.79H301.29L307.5,458V592.31l-4.14,4.09H318l-4.3-4.06V457.94l6.25-5.81H448.06q2.76,2.91,5.54,5.8v134.3l-3.51,4.17h13.5l-3.76-4.13V457.79l5.81-5.66h133.2L604,457V441.23l-5.19,4.67H465.63l-5.8-5.66V311.09l5.87-5.19H598.79ZM448.08,445.9H320l-6.25-5.65q0-64.56,0-129.12L319,305.9h129.1l5.54,5.16V440.28Z"/><rect class="cls-4" x="164" y="629.53" width="8.15" height="110.47"/><rect class="cls-5" x="594.7" y="629.6" width="9.3" height="110.4"/><rect class="cls-6" x="172.15" y="629.6" width="422.55" height="110.4"/><path class="cls-3" d="M604,667.05v-4.16H463.82l-5.61-6.23v-23l4.63-4.09H449.37l4.7,4v23.07l-5.69,6.18H319.67l-6.17-6.17v-22l5.19-5.15H304.05l5.31,5.15v21.9l-6.29,6.24H164v4.16H303.11l6.25,6.18v22l-6.25,6.22H164v4.16H303.11l6.25,6.27v22.91L304.12,740h14.55l-5.17-5.19v-23q3.09-3.09,6.17-6.2H448.44l5.63,6.24V734.8L449.52,740H463l-4.74-5.17V711.94l6.72-6.31H604v-4.16H464l-5.8-6.21q0-11.57,0-23.14l5.66-5.06ZM448.39,701.47H319.65l-6.15-6.24V673.3l6.19-6.24H448.35c1.91,2.09,3.81,4.18,5.72,6.26v21.94C452.18,697.32,450.29,699.4,448.39,701.47Z"/></g></g></svg>