<svg xmlns="http://www.w3.org/2000/svg" viewBox="0 0 768 768"><defs><style>.cls-1{opacity:0;}.cls-2{fill:#e9c2a6;}.cls-3{fill:#ff4a4a;}.cls-4{fill:#352823;}.cls-5{fill:#fff;}.cls-6{fill:#221f27;}.cls-7{fill:#ffd500;}.cls-8{fill:#f2f2f2;}</style></defs><g id="Слой_2" data-name="Слой 2"><g id="Characters"><rect class="cls-1" width="768" height="768"/><path class="cls-2" d="M270.35,245.07h228a14,14,0,0,1,14,14V740a0,0,0,0,1,0,0h-256a0,0,0,0,1,0,0V259.07A14,14,0,0,1,270.35,245.07Z"/><path class="cls-3" d="M512.35,740h-256V491.73h256Z"/><ellipse class="cls-4" cx="429.88" cy="325.54" rx="20.31" ry="20.36"/><rect class="cls-4" x="405.82" y="287.42" width="58.1" height="13.8" rx="2"/><ellipse class="cls-4" cx="339.07" cy="325.54" rx="20.31" ry="20.36"/><rect class="cls-4" x="304.98" y="287.42" width="58.1" height="13.8" rx="2"/><path class="cls-5" d="M470.56,458.77,415.66,404l-62.62,0-54.9,54.65H256.35v33h256v-33ZM408.93,419a2,2,0,0,1-2,2H361.76a2,2,0,0,1-2-2v-1.52a2,2,0,0,1,2-2h45.18a2,2,0,0,1,2,2Z"/><path class="cls-5" d="M512.35,287.42A71.46,71.46,0,0,0,490.64,273a72.18,72.18,0,0,0-26.33-5.45c-19.73-.69-77.65-1.28-155.92-.56a86,86,0,0,0-52,20.39V247.27c.29-4.54,1.53-10.14,5.65-14.13,4.86-4.71,11.51-5.14,13.58-5.14H493.12a19.25,19.25,0,0,1,19.23,19.27Z"/><path class="cls-6" d="M512.35,664.65h-256V646.8h256Z"/><path class="cls-7" d="M410.47,669H358.33V642.55h52.14Z"/><path class="cls-8" d="M510.14,198.17a89.55,89.55,0,0,0-9.35-13l-231.94-.08a71,71,0,0,0-10.35,13,66.44,66.44,0,0,0-6.9,17.05c-.59,2.39-1.07,4.95.05,7.74a11.48,11.48,0,0,0,4.28,5.08H512.15a9.92,9.92,0,0,0,4.66-4.16c1.41-2.64.92-5.34.33-7.8A72.08,72.08,0,0,0,510.14,198.17Z"/><path class="cls-3" d="M463.59,152.32l-15-27.88L438.7,108l-43-35.13L353.09,60l-36.54.21-33.76,9.24-15.2,8.39-11.24,9.78c.65,2.56,1.31,5.12,2,7.68l14.63,3.16,12.31,6.17,10.93,9.07,7.37,12q2.34,6.09,4.69,12.17.11,6.93.22,13.84c-1.53,3.87-3.27,7.9-5.24,12.06q-1.71,3.57-3.45,6.89l-9.66,14.49h188.1Q470.91,168.71,463.59,152.32Z"/><ellipse class="cls-8" cx="233.96" cy="97.72" rx="25.88" ry="25.72"/></g></g></svg>