<svg xmlns="http://www.w3.org/2000/svg" viewBox="0 0 768 768"><defs><style>.cls-1{opacity:0;}.cls-2{fill:#e9c2a6;}.cls-3{fill:#fff;}.cls-4{fill:#352823;}.cls-5{fill:#e3e5e9;}.cls-6{fill:#ffbc00;}.cls-7{fill:#ffca00;}.cls-8{fill:none;stroke:#000;stroke-miterlimit:10;stroke-width:0.5px;}</style></defs><g id="Слой_2" data-name="Слой 2"><g id="Characters"><rect class="cls-1" width="768" height="768"/><path class="cls-2" d="M270,245.07H498a14,14,0,0,1,14,14V740a0,0,0,0,1,0,0H256a0,0,0,0,1,0,0V259.07A14,14,0,0,1,270,245.07Z"/><path class="cls-3" d="M512,740H256V674.61H512Z"/><ellipse class="cls-4" cx="429.5" cy="325.54" rx="20.31" ry="20.36"/><rect class="cls-4" x="405.44" y="287.42" width="58.1" height="13.8" rx="2"/><ellipse class="cls-4" cx="338.7" cy="325.54" rx="20.31" ry="20.36"/><rect class="cls-4" x="304.61" y="287.42" width="58.1" height="13.8" rx="2"/><path class="cls-5" d="M512,287.42A71.52,71.52,0,0,0,490.27,273a72.25,72.25,0,0,0-26.33-5.45c-19.74-.69-77.66-1.28-155.93-.56a86,86,0,0,0-52,20.39V247.27c.3-4.54,1.53-10.14,5.65-14.13,4.87-4.71,11.51-5.14,13.58-5.14H492.75A19.24,19.24,0,0,1,512,247.27Z"/><path class="cls-6" d="M512,674.61H256V656.52H512Z"/><path class="cls-3" d="M512,656.52H424.7A45.86,45.86,0,0,1,419.38,644c-1.3-5-1.41-9-1.53-14.59a139.29,139.29,0,0,1,.64-16.28c1.05-11.16,1.57-16.74,3-25.54,1.75-10.68,3.37-34.78,3.2-92.14H512Z"/><path class="cls-5" d="M470.19,458.77,415.28,404l-62.61,0L297.76,458.7H256v64.76l.06,4.61a7.79,7.79,0,0,0,12.46,6.38,17,17,0,0,0,5.69,16.68c7.28,6,16.2,3,16.61,2.89a19.2,19.2,0,0,0,7.62,11.87c8.46,5.87,18.22,1.72,18.8,1.47a19,19,0,0,0,8.47,13.53c8.08,5,16.56,1.43,17.25,1.12a19.17,19.17,0,0,0,8.27,10.69,19.61,19.61,0,0,0,16,1.58,18.85,18.85,0,0,0,16,9.38,21.36,21.36,0,0,0,18.5-9.73,17.89,17.89,0,0,0,22.78-12.4,17.52,17.52,0,0,0,17.6-.48c7.48-4.7,8-13.18,8.07-14,.43.22,9.57,4.71,18-.64a18.48,18.48,0,0,0,8-12.62A17,17,0,0,0,499.46,538c1.36,0,5.63-.16,8.72-3.24,3.29-3.28,3.62-8.25,3.75-10.33,0-.41,0-.75,0-1V458.7Zm-110.8-41.26a2,2,0,0,1,2-2h45.17a2,2,0,0,1,2,2V419a2,2,0,0,1-2,2H361.39a2,2,0,0,1-2-2Z"/><path class="cls-7" d="M515.83,318.39h-1.64l-1.68-14.51V249.83l1.8-15.43,1.56,0,1.62,15.39,0,54Z"/><path class="cls-7" d="M253.81,318.39h-1.64l-1.68-14.51V249.83l1.8-15.43,1.56,0,1.62,15.39,0,54Z"/><polyline class="cls-8" points="260.67 670.43 260.67 660.7 277.07 660.7 277.07 670.43 264.48 670.43 264.48 663.61 273.35 663.61 273.35 668.02 267.25 668.02"/><polyline class="cls-8" points="281.72 660.7 281.72 670.43 298.12 670.43 298.12 660.7 285.53 660.7 285.53 667.52 294.4 667.52 294.4 663.11 288.29 663.11"/><polyline class="cls-8" points="302.47 670.43 302.47 660.7 318.88 660.7 318.88 670.43 306.29 670.43 306.29 663.61 315.15 663.61 315.15 668.02 309.05 668.02"/><polyline class="cls-8" points="323.52 660.7 323.52 670.43 339.93 670.43 339.93 660.7 327.33 660.7 327.33 667.52 336.2 667.52 336.2 663.11 330.1 663.11"/><polyline class="cls-8" points="344.35 670.43 344.35 660.7 360.75 660.7 360.75 670.43 348.16 670.43 348.16 663.61 357.02 663.61 357.02 668.02 350.92 668.02"/><polyline class="cls-8" points="365.39 660.7 365.39 670.43 381.8 670.43 381.8 660.7 369.2 660.7 369.2 667.52 378.07 667.52 378.07 663.11 371.97 663.11"/><polyline class="cls-8" points="386.15 670.43 386.15 660.7 402.56 660.7 402.56 670.43 389.96 670.43 389.96 663.61 398.83 663.61 398.83 668.02 392.73 668.02"/><polyline class="cls-8" points="407.2 660.7 407.2 670.43 423.61 670.43 423.61 660.7 411.01 660.7 411.01 667.52 419.88 667.52 419.88 663.11 413.78 663.11"/><polyline class="cls-8" points="428.09 670.43 428.09 660.7 444.49 660.7 444.49 670.43 431.9 670.43 431.9 663.61 440.77 663.61 440.77 668.02 434.66 668.02"/><polyline class="cls-8" points="449.13 660.7 449.13 670.43 465.54 670.43 465.54 660.7 452.95 660.7 452.95 667.52 461.81 667.52 461.81 663.11 455.71 663.11"/><polyline class="cls-8" points="469.89 670.43 469.89 660.7 486.3 660.7 486.3 670.43 473.7 670.43 473.7 663.61 482.57 663.61 482.57 668.02 476.47 668.02"/><polyline class="cls-8" points="490.94 660.7 490.94 670.43 507.35 670.43 507.35 660.7 494.75 660.7 494.75 667.52 503.62 667.52 503.62 663.11 497.52 663.11"/></g></g></svg>