<svg xmlns="http://www.w3.org/2000/svg" viewBox="0 0 196 196"><defs><style>.cls-1,.cls-2{fill:#fff;}.cls-1{opacity:0;}</style></defs><g id="Слой_2" data-name="Слой 2"><g id="Ranking"><rect class="cls-1" width="196" height="196"/><path class="cls-2" d="M98.94,95.66a30.35,30.35,0,0,0,22-9,29.69,29.69,0,0,0,9.14-21.8A29.69,29.69,0,0,0,121,43a31.42,31.42,0,0,0-44.09,0,29.67,29.67,0,0,0-9.13,21.8,29.68,29.68,0,0,0,9.13,21.8A30.37,30.37,0,0,0,98.94,95.66Z"/><path class="cls-2" d="M153.49,132.43a74,74,0,0,0-1.05-8.09,62,62,0,0,0-2-8.13,39.94,39.94,0,0,0-3.38-7.59,28.5,28.5,0,0,0-5.1-6.57,22.58,22.58,0,0,0-7.32-4.55,25.56,25.56,0,0,0-9.35-1.67c-1.32,0-2.6.54-5.07,2.12-1.52,1-3.29,2.12-5.28,3.37a30.33,30.33,0,0,1-6.83,3,26.88,26.88,0,0,1-16.7,0,30.33,30.33,0,0,1-6.83-3c-2-1.24-3.74-2.37-5.28-3.37-2.47-1.59-3.75-2.12-5.07-2.12a25.6,25.6,0,0,0-9.35,1.67,22.69,22.69,0,0,0-7.32,4.55,28.78,28.78,0,0,0-5.1,6.57,40.58,40.58,0,0,0-3.38,7.59,63.58,63.58,0,0,0-2,8.13A76.56,76.56,0,0,0,46,132.43c-.17,2.45-.26,5-.26,7.56,0,6.68,2.15,12.09,6.39,16.08S61.86,162,68.59,162h62.33c6.73,0,12.26-2,16.45-5.93s6.38-9.4,6.38-16.08C153.75,137.41,153.66,134.86,153.49,132.43Z"/></g></g></svg>