<svg xmlns="http://www.w3.org/2000/svg" viewBox="0 0 96 96"><defs><style>.cls-1,.cls-2{fill:#fff;}.cls-1{opacity:0;}.cls-3{fill:#fad207;}</style></defs><g id="Слой_2" data-name="Слой 2"><g id="Ranking"><rect class="cls-1" width="96" height="96"/><path class="cls-2" d="M86.22,9.6C73,9.6,50,.44,49.77.34a4.81,4.81,0,0,0-3.54,0C46,.44,23,9.6,9.78,9.6A4.79,4.79,0,0,0,5,14.4V52.81c0,2.48.63,5.94,4.15,11A155.71,155.71,0,0,0,20.38,75.68,155.8,155.8,0,0,0,35.61,88.4c4.9,3.53,8.59,6.06,9.8,6.84a4.81,4.81,0,0,0,5.18,0c.25-.16,4-2.62,9.17-6.38A164,164,0,0,0,73.41,77.67,162.63,162.63,0,0,0,86.85,63.83c3.52-5.08,4.15-8.54,4.15-11V14.4A4.79,4.79,0,0,0,86.22,9.6ZM86,52.78C86,58.39,79.61,66.52,67,77A225.9,225.9,0,0,1,48,91,225.9,225.9,0,0,1,29,77C16.39,66.52,10,58.39,10,52.78V14.56c14.09,0,37-9.17,38-9.56,1,.4,24,9.56,38,9.56Z"/><path class="cls-3" d="M81,52.85V18.75c-12.33-1.29-27.62-6.94-33-9-5.37,2.1-20.66,7.75-33,9v34.1c0,1.47,1.24,7.31,17.14,20.73,6.29,5.31,12.5,9.78,15.86,12.13,3.36-2.34,9.56-6.81,15.86-12.13C79.76,60.16,81,54.32,81,52.85Z"/></g></g></svg>