<svg xmlns="http://www.w3.org/2000/svg" viewBox="0 0 128 128"><defs><style>.cls-1{fill:#fff;}</style></defs><g id="Слой_2" data-name="Слой 2"><g id="Ranking"><path class="cls-1" d="M128,112.2V31.75A1.8,1.8,0,0,0,126.17,30H92.41a1.8,1.8,0,0,0-1.83,1.76V112.2A1.8,1.8,0,0,0,92.41,114h33.76A1.8,1.8,0,0,0,128,112.2Z"/><path class="cls-1" d="M45.29,1.77V112.19A1.81,1.81,0,0,0,47.13,114H80.87a1.81,1.81,0,0,0,1.84-1.77V1.78A1.82,1.82,0,0,0,80.85,0H47.13A1.81,1.81,0,0,0,45.29,1.77Z"/><rect class="cls-1" x="0.06" y="121.96" width="127.94" height="6.04" rx="0.5"/><path class="cls-1" d="M37.42,112.2V61.74A1.8,1.8,0,0,0,35.59,60H1.85A1.82,1.82,0,0,0,0,61.76V112.2A1.8,1.8,0,0,0,1.83,114H35.59A1.8,1.8,0,0,0,37.42,112.2Z"/></g></g></svg>