<svg xmlns="http://www.w3.org/2000/svg" viewBox="0 0 128 128"><defs><style>.cls-1{fill:#fff;}</style></defs><g id="Слой_2" data-name="Слой 2"><g id="Ranking"><path class="cls-1" d="M88.34,60.78h5c.61,0,1.21,0,1.81-.05A34.68,34.68,0,0,0,128,25.41a3.27,3.27,0,0,0-3.26-3.13H103.66c.17-1.48.3-2.82.39-4,.21-2.6.25-4.38.25-4.95,0-.14,0-.21,0-.21h.12a6.49,6.49,0,0,0,6.22-4.38A6.59,6.59,0,0,0,104.43,0H23.84A6.75,6.75,0,0,0,17,6.37a6.57,6.57,0,0,0,6.57,6.76h.12s0,.07,0,.21c0,.57,0,2.35.25,4.95.09,1.17.22,2.51.39,4H3.27A3.28,3.28,0,0,0,0,25.54,34.67,34.67,0,0,0,34.64,60.78h5a35.83,35.83,0,0,0,3.41,3.1A31.54,31.54,0,0,0,56.14,70v1c0,1.45,0,2.87-.14,4.25-.75,10.39-4.6,18.24-15.57,18.24h-3.3a5.45,5.45,0,0,0-5.45,5.45v8.71H20.25A3.25,3.25,0,0,0,17,110.9v13.85A3.24,3.24,0,0,0,20.25,128h87.5a3.24,3.24,0,0,0,3.25-3.25V110.9a3.25,3.25,0,0,0-3.25-3.25H95.81V98.94a5.61,5.61,0,0,0-.24-1.59,5.45,5.45,0,0,0-5.22-3.86h-3.3c-11,0-14.6-7.83-15.31-18.19,0-.7-.09-1.4-.11-2.12s0-1.44,0-2.18v-.92A31.87,31.87,0,0,0,88.34,60.78Zm20.43-37.9c-.28,2.4-.64,4.79-1.07,7.12H120a27,27,0,0,1-19.41,22.07,51,51,0,0,1-6.4,1c4.38-7.34,6.86-15.8,8.27-23h5.24C108.13,27.67,108.49,25.28,108.77,22.88ZM8,30H25.54a78.23,78.23,0,0,0,6,18.81c.7,1.44,1.45,2.86,2.27,4.23a54,54,0,0,1-6.15-.91A27,27,0,0,1,8,30Z"/></g></g></svg>