<svg xmlns="http://www.w3.org/2000/svg" viewBox="0 0 104 103"><defs><style>.cls-1{fill:#d8af32;}.cls-2{fill:#fafaff;}</style></defs><g id="Слой_2" data-name="Слой 2"><g id="Pause"><path class="cls-1" d="M102.25,50.38,86.49,34.76v-18a6,6,0,0,0-11.92,0v6.23L62.83,11.31a15.78,15.78,0,0,0-21.68,0L1.74,50.38a5.89,5.89,0,0,0,0,8.36,6,6,0,0,0,8.44,0l39.4-39.07a3.56,3.56,0,0,1,4.83,0L93.82,58.74a6,6,0,0,0,8.43,0A5.87,5.87,0,0,0,102.25,50.38Z"/><path class="cls-1" d="M54.07,30.89a2.93,2.93,0,0,0-4.14,0L15.26,65.24a3,3,0,0,0-.85,2.06v33.06A2.64,2.64,0,0,0,17.05,103H42.31V76.65H61.69V103H87a2.64,2.64,0,0,0,2.64-2.64V67.3a2.88,2.88,0,0,0-.86-2.06Z"/><path class="cls-2" d="M102.25,43.38,86.49,27.76v-18a6,6,0,0,0-11.92,0v6.23L62.83,4.31a15.78,15.78,0,0,0-21.68,0L1.74,43.38a5.89,5.89,0,0,0,0,8.36,6,6,0,0,0,8.44,0l39.4-39.07a3.56,3.56,0,0,1,4.83,0L93.82,51.74a6,6,0,0,0,8.43,0A5.87,5.87,0,0,0,102.25,43.38Z"/><path class="cls-2" d="M54.07,23.89a2.93,2.93,0,0,0-4.14,0L15.26,58.24a3,3,0,0,0-.85,2.06V93.36A2.64,2.64,0,0,0,17.05,96H42.31V69.65H61.69V96H87a2.64,2.64,0,0,0,2.64-2.64V60.3a2.88,2.88,0,0,0-.86-2.06Z"/></g></g></svg>