<svg xmlns="http://www.w3.org/2000/svg" viewBox="0 0 96.94 94.18"><defs><style>.cls-1{fill:#fff;}</style></defs><g id="Слой_2" data-name="Слой 2"><g id="Pause"><path class="cls-1" d="M87.23,18.45a47.14,47.14,0,0,0-66-8.77,47.34,47.34,0,0,0-8.07,7.87L11,5.64A2.39,2.39,0,0,0,8.27,3.7L2,4.81a2.4,2.4,0,0,0-1.55,1A2.42,2.42,0,0,0,0,7.58l5,28.3a2.41,2.41,0,0,0,2.36,2,2,2,0,0,0,.42,0l28.3-5a2.4,2.4,0,0,0,1.94-2.78l-1.11-6.28a2.39,2.39,0,0,0-1-1.55,2.41,2.41,0,0,0-1.79-.4L22.37,23.91A36.19,36.19,0,0,1,28,18.56,35.91,35.91,0,0,1,85.44,51.81,35.94,35.94,0,0,1,49.91,83a37.12,37.12,0,0,1-4.81-.32,36,36,0,0,1-30.69-29.6,2.45,2.45,0,0,0-1-1.55,2.37,2.37,0,0,0-1.79-.41l-6.3,1.06a2.4,2.4,0,0,0-2,2.76A47.14,47.14,0,0,0,43.63,93.77a49.36,49.36,0,0,0,6.3.41,47.1,47.1,0,0,0,46.59-40.9A46.76,46.76,0,0,0,87.23,18.45Z"/></g></g></svg>