<svg xmlns="http://www.w3.org/2000/svg" viewBox="0 0 122 115"><defs><style>.cls-1{fill:#2c95bf;}.cls-2{fill:#fafaff;}</style></defs><g id="Слой_2" data-name="Слой 2"><g id="Pause"><path class="cls-1" d="M68.76,113A50.5,50.5,0,0,1,32.53,97.76a5.23,5.23,0,0,1,0-7.32,5.11,5.11,0,0,1,7.29,0,40.27,40.27,0,0,0,28.94,12.18c22.58,0,40.95-18.67,40.95-41.62s-18.38-41.62-41-41.62C47.66,19.38,30.25,35.64,28,56.47l9.46-8.68a5.12,5.12,0,0,1,7.29.37,5.28,5.28,0,0,1-.37,7.32l-19.66,18a5.08,5.08,0,0,1-3.45,1.35,4.36,4.36,0,0,1-.72,0A5.13,5.13,0,0,1,17,72.49L2.84,50.88A5.24,5.24,0,0,1,4.29,43.7a5.13,5.13,0,0,1,7.14,1.47L17.84,55C20.79,29.13,42.49,9,68.74,9,97,9,120,32.33,120,61S97,113,68.76,113Z"/><path class="cls-1" d="M68.74,11C95.89,11,118,33.41,118,61s-22.11,50-49.24,50A48.56,48.56,0,0,1,34,96.36a3.22,3.22,0,0,1,0-4.51,3.1,3.1,0,0,1,2.22-.94,3.07,3.07,0,0,1,2.22.94,42.31,42.31,0,0,0,30.37,12.77c23.69,0,42.95-19.55,42.95-43.62s-19.29-43.62-43-43.62-43,19.55-43,43.62v.24l13.06-12a3.13,3.13,0,0,1,4.44.24A3.24,3.24,0,0,1,43.05,54L23.39,72a3.05,3.05,0,0,1-2.1.83,2.55,2.55,0,0,1-.39,0,3.16,3.16,0,0,1-2.24-1.4L4.52,49.78a3.22,3.22,0,0,1,.88-4.42,3.13,3.13,0,0,1,4.35.9L19.5,61.17V61c0-27.56,22.08-50,49.24-50m0-4c-25.5,0-46.86,18.27-52,42.58l-3.6-5.51a7.13,7.13,0,0,0-9.93-2,7.24,7.24,0,0,0-2,9.92L15.32,73.58a7.11,7.11,0,0,0,5,3.16,5.78,5.78,0,0,0,1,.07,7.1,7.1,0,0,0,4.83-1.9L45.75,57a7.27,7.27,0,0,0,.53-10.1,7.12,7.12,0,0,0-10.13-.56L31,51a39.16,39.16,0,0,1,37.7-29.6c21.49,0,39,17.77,39,39.62s-17.47,39.62-38.95,39.62A38.27,38.27,0,0,1,41.25,89,7.11,7.11,0,0,0,31.1,89a7.24,7.24,0,0,0,0,10.12A52.5,52.5,0,0,0,68.76,115C98.11,115,122,90.78,122,61S98.1,7,68.74,7Z"/><path class="cls-2" d="M68.76,106A50.5,50.5,0,0,1,32.53,90.76a5.23,5.23,0,0,1,0-7.32,5.11,5.11,0,0,1,7.29,0A40.27,40.27,0,0,0,68.76,95.62C91.34,95.62,109.71,77,109.71,54s-18.38-41.62-41-41.62C47.66,12.38,30.25,28.64,28,49.47l9.46-8.68a5.12,5.12,0,0,1,7.29.37,5.28,5.28,0,0,1-.37,7.32l-19.66,18a5.08,5.08,0,0,1-3.45,1.35,4.36,4.36,0,0,1-.72,0A5.13,5.13,0,0,1,17,65.49L2.84,43.88A5.24,5.24,0,0,1,4.29,36.7a5.13,5.13,0,0,1,7.14,1.47L17.84,48C20.79,22.13,42.49,2,68.74,2,97,2,120,25.33,120,54S97,106,68.76,106Z"/><path class="cls-2" d="M68.74,4C95.89,4,118,26.41,118,54s-22.11,50-49.24,50A48.56,48.56,0,0,1,34,89.36a3.22,3.22,0,0,1,0-4.51,3.1,3.1,0,0,1,2.22-.94,3.07,3.07,0,0,1,2.22.94A42.31,42.31,0,0,0,68.76,97.62c23.69,0,42.95-19.55,42.95-43.62s-19.29-43.62-43-43.62-43,19.55-43,43.62v.24l13.06-12a3.13,3.13,0,0,1,4.44.24A3.24,3.24,0,0,1,43.05,47L23.39,65a3.05,3.05,0,0,1-2.1.83,2.55,2.55,0,0,1-.39,0,3.16,3.16,0,0,1-2.24-1.4L4.52,42.78a3.22,3.22,0,0,1,.88-4.42,3.13,3.13,0,0,1,4.35.9L19.5,54.17V54c0-27.56,22.08-50,49.24-50m0-4c-25.5,0-46.86,18.27-52,42.58l-3.6-5.51a7.13,7.13,0,0,0-9.93-2,7.24,7.24,0,0,0-2,9.92L15.32,66.58a7.11,7.11,0,0,0,5,3.16,5.78,5.78,0,0,0,1,.07,7.1,7.1,0,0,0,4.83-1.9L45.75,50a7.27,7.27,0,0,0,.53-10.1,7.12,7.12,0,0,0-10.13-.56L31,44a39.16,39.16,0,0,1,37.7-29.6c21.49,0,39,17.77,39,39.62S90.24,93.62,68.76,93.62A38.27,38.27,0,0,1,41.25,82,7.11,7.11,0,0,0,31.1,82a7.24,7.24,0,0,0,0,10.12A52.5,52.5,0,0,0,68.76,108C98.11,108,122,83.78,122,54S98.1,0,68.74,0Z"/></g></g></svg>