<svg xmlns="http://www.w3.org/2000/svg" viewBox="0 0 216 216"><defs><style>.cls-1{fill:#008bc6;}.cls-2{fill:#00a6ed;}.cls-3{fill:#fff;}</style></defs><g id="Слой_2" data-name="Слой 2"><g id="Pause"><rect class="cls-1" width="216" height="216" rx="18"/><rect class="cls-2" width="216" height="198" rx="18"/><path class="cls-1" d="M112.82,158a53.09,53.09,0,0,1-37.43-15.22,5.12,5.12,0,0,1,0-7.36,5.29,5.29,0,0,1,7.4,0,42.54,42.54,0,0,0,30,12.2c23.41,0,42.46-18.67,42.46-41.62S136.22,64.38,112.8,64.38c-21.9,0-40,16.32-42.23,37.2l10-8.82a5.33,5.33,0,0,1,7.39.38,5.16,5.16,0,0,1-.37,7.36l-20.36,18a5.23,5.23,0,0,1-3.49,1.33,4.6,4.6,0,0,1-.74,0,5.25,5.25,0,0,1-3.64-2.24L44.67,95.9a5,5,0,0,1-.78-3.9,5.13,5.13,0,0,1,2.26-3.31,5.3,5.3,0,0,1,7.25,1.45l6.77,10C63.14,74.21,85.61,54,112.8,54c29.21,0,53,23.33,53,52S142,158,112.82,158Z"/><path class="cls-1" d="M112.8,56c28.1,0,51,22.41,51,50s-22.88,50-51,50a51.14,51.14,0,0,1-36-14.64,3.13,3.13,0,0,1,0-4.51,3.28,3.28,0,0,1,4.6,0,44.55,44.55,0,0,0,31.43,12.77c24.52,0,44.46-19.55,44.46-43.62s-20-43.62-44.48-43.62S68.34,81.93,68.34,106v.24l13.51-12A3.26,3.26,0,0,1,84,93.45a3.3,3.3,0,0,1,2.43,1A3.17,3.17,0,0,1,86.21,99L65.85,117a3.18,3.18,0,0,1-2.16.83,2.75,2.75,0,0,1-.41,0,3.3,3.3,0,0,1-2.32-1.4L46.32,94.78a3.15,3.15,0,0,1,.92-4.42A3.32,3.32,0,0,1,49,89.84a3.27,3.27,0,0,1,2.71,1.42l10.09,14.91V106c0-27.56,22.86-50,51-50m0-4C86.38,52,64.25,70.41,59,94.86l-4-5.84a7.3,7.3,0,0,0-10-2A7.17,7.17,0,0,0,43,97l14.65,21.62a7.31,7.31,0,0,0,5.06,3.11,6.73,6.73,0,0,0,1,.06A7.18,7.18,0,0,0,68.53,120L88.85,102A7.16,7.16,0,0,0,89.4,91.8a7.33,7.33,0,0,0-10.19-.55l-5.64,5A40.39,40.39,0,0,1,112.8,66.38c22.32,0,40.48,17.77,40.48,39.62s-18.15,39.62-40.46,39.62A40.57,40.57,0,0,1,84.19,134,7.29,7.29,0,0,0,74,134a7.12,7.12,0,0,0,0,10.22A55.11,55.11,0,0,0,112.82,160c30.31,0,55-24.22,55-54s-24.66-54-55-54Z"/><path class="cls-3" d="M112.82,151a53.09,53.09,0,0,1-37.43-15.22,5.12,5.12,0,0,1,0-7.36,5.29,5.29,0,0,1,7.4,0,42.54,42.54,0,0,0,30,12.2c23.41,0,42.46-18.67,42.46-41.62S136.22,57.38,112.8,57.38c-21.9,0-40,16.32-42.23,37.2l10-8.82a5.33,5.33,0,0,1,7.39.38,5.16,5.16,0,0,1-.37,7.36l-20.36,18a5.23,5.23,0,0,1-3.49,1.33,4.6,4.6,0,0,1-.74,0,5.25,5.25,0,0,1-3.64-2.24L44.67,88.9a5,5,0,0,1-.78-3.9,5.13,5.13,0,0,1,2.26-3.31,5.3,5.3,0,0,1,7.25,1.45l6.77,10C63.14,67.21,85.61,47,112.8,47c29.21,0,53,23.33,53,52S142,151,112.82,151Z"/><path class="cls-3" d="M112.8,49c28.1,0,51,22.41,51,50s-22.88,50-51,50a51.14,51.14,0,0,1-36-14.64,3.13,3.13,0,0,1,0-4.51,3.28,3.28,0,0,1,4.6,0,44.55,44.55,0,0,0,31.43,12.77c24.52,0,44.46-19.55,44.46-43.62s-20-43.62-44.48-43.62S68.34,74.93,68.34,99v.24l13.51-12A3.26,3.26,0,0,1,84,86.45a3.3,3.3,0,0,1,2.43,1A3.17,3.17,0,0,1,86.21,92L65.85,110a3.18,3.18,0,0,1-2.16.83,2.75,2.75,0,0,1-.41,0,3.3,3.3,0,0,1-2.32-1.4L46.32,87.78a3.15,3.15,0,0,1,.92-4.42A3.32,3.32,0,0,1,49,82.84a3.27,3.27,0,0,1,2.71,1.42L61.83,99.17V99c0-27.56,22.86-50,51-50m0-4C86.38,45,64.25,63.41,59,87.86l-4-5.84a7.3,7.3,0,0,0-10-2A7.17,7.17,0,0,0,43,90l14.65,21.62a7.31,7.31,0,0,0,5.06,3.11,6.73,6.73,0,0,0,1,.06A7.18,7.18,0,0,0,68.53,113L88.85,95A7.16,7.16,0,0,0,89.4,84.8a7.33,7.33,0,0,0-10.19-.55l-5.64,5A40.39,40.39,0,0,1,112.8,59.38c22.32,0,40.48,17.77,40.48,39.62s-18.15,39.62-40.46,39.62A40.57,40.57,0,0,1,84.19,127,7.29,7.29,0,0,0,74,127a7.12,7.12,0,0,0,0,10.22A55.11,55.11,0,0,0,112.82,153c30.31,0,55-24.22,55-54s-24.66-54-55-54Z"/></g></g></svg>