<svg xmlns="http://www.w3.org/2000/svg" viewBox="0 0 216 216"><defs><style>.cls-1{fill:#6daf00;}.cls-2{fill:#7dc900;}.cls-3{fill:#fff;}</style></defs><g id="Слой_2" data-name="Слой 2"><g id="Pause"><rect class="cls-1" width="216" height="216" rx="18"/><rect class="cls-2" width="216" height="198" rx="18"/><path class="cls-1" d="M152.05,102.11,75.37,57.54a4.5,4.5,0,0,0-6.76,3.89v89.14a4.5,4.5,0,0,0,6.76,3.89l76.68-44.57A4.5,4.5,0,0,0,152.05,102.11Z"/><path class="cls-3" d="M152.05,95.11,75.37,50.54a4.5,4.5,0,0,0-6.76,3.89v89.14a4.5,4.5,0,0,0,6.76,3.89l76.68-44.57A4.5,4.5,0,0,0,152.05,95.11Z"/></g></g></svg>