# Blender v2.83.4 OBJ File: ''
# www.blender.org
mtllib cloud_1.mtl
o Цилиндр_Цилиндр.001
v 3.000000 0.000000 -1.000000
v 3.000000 0.700000 -1.000000
v 3.195090 0.000000 -0.980785
v 3.195090 0.700000 -0.980785
v 3.382684 0.000000 -0.923880
v 3.382684 0.700000 -0.923880
v 3.555570 0.000000 -0.831470
v 3.555570 0.700000 -0.831470
v 3.707107 0.000000 -0.707107
v 3.707107 0.700000 -0.707107
v 3.831470 0.000000 -0.555570
v 3.831470 0.700000 -0.555570
v 3.923880 0.000000 -0.382683
v 3.923880 0.700000 -0.382683
v 3.980785 0.000000 -0.195090
v 3.980785 0.700000 -0.195090
v 4.000000 0.000000 -0.000000
v 4.000000 0.700000 -0.000000
v 3.980785 0.000000 0.195090
v 3.980785 0.700000 0.195090
v 3.923880 0.000000 0.382683
v 3.923880 0.700000 0.382683
v 3.831470 0.000000 0.555570
v 3.831470 0.700000 0.555570
v 3.707107 0.000000 0.707107
v 3.707107 0.700000 0.707107
v 3.555570 0.000000 0.831470
v 3.555570 0.700000 0.831470
v 3.382683 0.000000 0.923880
v 3.382683 0.700000 0.923880
v 3.195090 0.000000 0.980785
v 3.195090 0.700000 0.980785
v 3.000000 0.000000 1.000000
v 3.000000 0.700000 1.000000
v -3.195091 0.000000 0.980785
v -3.195091 0.700000 0.980785
v -3.382684 0.000000 0.923879
v -3.382684 0.700000 0.923879
v -3.555571 0.000000 0.831469
v -3.555571 0.700000 0.831469
v -3.707107 0.000000 0.707106
v -3.707107 0.700000 0.707106
v -3.831470 0.000000 0.555570
v -3.831470 0.700000 0.555570
v -3.923880 0.000000 0.382683
v -3.923880 0.700000 0.382683
v -3.980785 0.000000 0.195089
v -3.980785 0.700000 0.195089
v -4.000000 0.000000 -0.000001
v -4.000000 0.700000 -0.000001
v -3.980785 0.000000 -0.195091
v -3.980785 0.700000 -0.195091
v -3.923879 0.000000 -0.382684
v -3.923879 0.700000 -0.382684
v -3.831469 0.000000 -0.555571
v -3.831469 0.700000 -0.555571
v -3.707106 0.000000 -0.707108
v -3.707106 0.700000 -0.707108
v -3.555569 0.000000 -0.831470
v -3.555569 0.700000 -0.831470
v -3.382682 0.000000 -0.923880
v -3.382682 0.700000 -0.923880
v -3.195089 0.000000 -0.980786
v -3.195089 0.700000 -0.980786
v 1.895929 0.700000 1.996580
v 1.895929 0.000000 1.996580
v -2.083442 0.700000 -1.984238
v -2.995316 0.700000 -1.066690
v -2.320090 0.700000 -1.952336
v -2.540417 0.700000 -1.860272
v -2.729409 0.700000 -1.714320
v -2.874186 0.700000 -1.524426
v -2.964882 0.700000 -1.303532
v -2.995316 0.000000 -1.066690
v -2.083442 0.000000 -1.984238
v -2.964882 0.000000 -1.303532
v -2.874186 0.000000 -1.524426
v -2.729409 0.000000 -1.714320
v -2.540417 0.000000 -1.860272
v -2.320090 0.000000 -1.952336
v 0.555971 0.000000 -1.992424
v 1.473519 0.000000 -1.080551
v 0.792812 0.000000 -1.961991
v 1.013707 0.000000 -1.871295
v 1.203600 0.000000 -1.726518
v 1.349552 0.000000 -1.537526
v 1.441617 0.000000 -1.317199
v 1.473519 0.700000 -1.080551
v 0.555971 0.700000 -1.992424
v 1.441616 0.700000 -1.317199
v 1.349552 0.700000 -1.537526
v 1.203600 0.700000 -1.726518
v 1.013706 0.700000 -1.871295
v 0.792812 0.700000 -1.961991
v 1.895929 0.700000 1.996580
v 2.745687 0.700000 1.126882
v 2.157815 0.700000 1.954698
v 2.394331 0.700000 1.831526
v 2.582325 0.700000 1.639121
v 2.703394 0.700000 1.396317
v 2.745687 0.000000 1.126882
v 1.895929 0.000000 1.996580
v 2.703394 0.000000 1.396317
v 2.582325 0.000000 1.639121
v 2.394331 0.000000 1.831525
v 2.157815 0.000000 1.954698
v -0.661821 0.000000 1.991749
v -1.460716 0.000000 1.116937
v -0.909397 0.000000 1.948286
v -1.132473 0.000000 1.823688
v -1.309214 0.000000 1.630152
v -1.422319 0.000000 1.386622
v -1.460716 0.700000 1.116937
v -0.661821 0.700000 1.991749
v -1.422319 0.700000 1.386622
v -1.309214 0.700000 1.630152
v -1.132473 0.700000 1.823688
v -0.909397 0.700000 1.948286
v 1.895929 0.700000 1.996580
v 1.895929 0.000000 1.996580
v -1.460716 0.000000 1.116937
v -1.591619 0.000000 0.988860
v -1.470559 0.000000 1.068049
v -1.498893 0.000000 1.026542
v -1.541403 0.000000 0.998734
v -1.591619 0.700000 0.988860
v -1.460716 0.700000 1.116937
v -1.541403 0.700000 0.998734
v -1.498893 0.700000 1.026542
v -1.470559 0.700000 1.068049
v 2.871743 0.000000 0.999602
v 2.745694 0.000000 1.124872
v 2.823625 0.000000 1.009018
v 2.782774 0.000000 1.036131
v 2.755408 0.000000 1.076814
v 2.745694 0.700000 1.124872
v 2.871743 0.700000 0.999602
v 2.755408 0.700000 1.076814
v 2.782774 0.700000 1.036131
v 2.823625 0.700000 1.009018
v 1.473519 0.000000 -1.080551
v 1.564906 0.000000 -0.995549
v 1.480557 0.000000 -1.047935
v 1.500395 0.000000 -1.020328
v 1.530015 0.000000 -1.001933
v 1.564906 0.700000 -0.995549
v 1.473519 0.700000 -1.080551
v 1.530015 0.700000 -1.001933
v 1.500395 0.700000 -1.020328
v 1.480556 0.700000 -1.047935
v -3.087024 0.000000 -0.981121
v -2.995316 0.000000 -1.066690
v -3.051848 0.000000 -0.987722
v -3.022067 0.000000 -1.006302
v -3.002216 0.000000 -1.034032
v -2.995316 0.700000 -1.066690
v -3.087024 0.700000 -0.981121
v -3.002216 0.700000 -1.034032
v -3.022067 0.700000 -1.006302
v -3.051848 0.700000 -0.987722
v -3.195091 0.700000 0.980785
vt 1.000000 0.500000
vt 1.000000 1.000000
vt 0.968750 1.000000
vt 0.968750 0.500000
vt 0.937500 1.000000
vt 0.937500 0.500000
vt 0.906250 1.000000
vt 0.906250 0.500000
vt 0.875000 1.000000
vt 0.875000 0.500000
vt 0.843750 1.000000
vt 0.843750 0.500000
vt 0.812500 1.000000
vt 0.812500 0.500000
vt 0.781250 1.000000
vt 0.781250 0.500000
vt 0.750000 1.000000
vt 0.750000 0.500000
vt 0.718750 1.000000
vt 0.718750 0.500000
vt 0.687500 1.000000
vt 0.687500 0.500000
vt 0.656250 1.000000
vt 0.656250 0.500000
vt 0.625000 1.000000
vt 0.625000 0.500000
vt 0.593750 1.000000
vt 0.593750 0.500000
vt 0.562500 1.000000
vt 0.562500 0.500000
vt 0.531250 1.000000
vt 0.531250 0.500000
vt 0.500000 1.000000
vt 0.500000 0.500000
vt 0.482545 1.000000
vt 0.482545 0.500000
vt 0.482545 0.500000
vt 0.482545 1.000000
vt 0.468750 0.500000
vt 0.468750 1.000000
vt 0.437500 1.000000
vt 0.437500 0.500000
vt 0.406250 1.000000
vt 0.406250 0.500000
vt 0.375000 1.000000
vt 0.375000 0.500000
vt 0.343750 1.000000
vt 0.343750 0.500000
vt 0.312500 1.000000
vt 0.312500 0.500000
vt 0.281250 1.000000
vt 0.281250 0.500000
vt 0.250000 1.000000
vt 0.250000 0.500000
vt 0.218750 1.000000
vt 0.218750 0.500000
vt 0.187500 1.000000
vt 0.187500 0.500000
vt 0.156250 1.000000
vt 0.156250 0.500000
vt 0.125000 1.000000
vt 0.125000 0.500000
vt 0.093750 1.000000
vt 0.093750 0.500000
vt 0.062500 1.000000
vt 0.062500 0.500000
vt 0.031250 1.000000
vt 0.031250 0.500000
vt 0.007699 1.000000
vt 0.007699 0.500000
vt 0.007699 0.500000
vt 0.007699 1.000000
vt 0.498719 0.500000
vt 0.498719 1.000000
vt 0.498719 1.000000
vt 0.498719 0.500000
vt 0.499353 1.000000
vt 0.499353 0.500000
vt 0.494446 0.500000
vt 0.494446 1.000000
vt 0.494446 1.000000
vt 0.494446 0.500000
vt 0.494446 1.000000
vt 0.494446 0.500000
vt 0.481883 0.500000
vt 0.481883 1.000000
vt 0.030241 0.500000
vt 0.030241 1.000000
vt 0.030241 1.000000
vt 0.030241 0.500000
vt 0.030705 1.000000
vt 0.030705 0.500000
vt 0.007239 0.500000
vt 0.007239 1.000000
vt 0.000000 1.000000
vt 0.000000 0.500000
vt 0.025627 1.000000
vt 0.025627 0.500000
vt 0.254486 0.495347
vt 0.087819 0.828681
vt 0.254672 0.495293
vt 0.088005 0.828626
vt 0.255732 0.495246
vt 0.089066 0.828579
vt 0.255366 0.495210
vt 0.088700 0.828543
vt 0.255136 0.495187
vt 0.088469 0.828520
vt 0.251209 0.496280
vt 0.084542 0.829614
vt 0.250979 0.496258
vt 0.084312 0.829591
vt 0.250613 0.496221
vt 0.083946 0.829555
vt 0.251673 0.496175
vt 0.085007 0.829508
vt 0.251859 0.496120
vt 0.085193 0.829453
vt 0.012313 0.500000
vt 0.012313 1.000000
vt 0.578397 0.336875
vt 0.411730 0.670208
vt 0.579786 0.336816
vt 0.413119 0.670150
vt 0.581432 0.336770
vt 0.414766 0.670103
vt 0.581735 0.336740
vt 0.415069 0.670073
vt 0.563078 0.337516
vt 0.396411 0.670849
vt 0.563365 0.337487
vt 0.396698 0.670821
vt 0.564923 0.337443
vt 0.398256 0.670777
vt 0.566237 0.337388
vt 0.399571 0.670721
vt 0.486589 0.500000
vt 0.486589 1.000000
vt 0.482136 0.500000
vt 0.482136 1.000000
vt 0.482545 0.500000
vt 0.482545 1.000000
vt 0.482545 0.500000
vt 0.482545 1.000000
vt 0.498719 0.500000
vt 0.498719 1.000000
vt 0.498719 0.500000
vt 0.498719 1.000000
vt 0.499110 0.500000
vt 0.499110 1.000000
vt 0.007415 0.500000
vt 0.007415 1.000000
vt 0.007699 0.500000
vt 0.007699 1.000000
vt 0.007699 0.500000
vt 0.007699 1.000000
vt 0.750000 0.490000
vt 0.796822 0.485388
vt 0.841844 0.471731
vt 0.883337 0.449553
vt 0.919706 0.419706
vt 0.949553 0.383337
vt 0.971731 0.341844
vt 0.985388 0.296822
vt 0.990000 0.250000
vt 0.985388 0.203178
vt 0.971731 0.158156
vt 0.949553 0.116663
vt 0.919706 0.080294
vt 0.883337 0.050447
vt 0.841844 0.028269
vt 0.796822 0.014612
vt 0.750000 0.010000
vt 0.749031 0.010095
vt 0.747882 0.007836
vt 0.748359 0.010162
vt 0.748153 0.010182
vt 0.748081 0.010189
vt 0.748081 0.010189
vt 0.741679 0.010820
vt 0.741679 0.010820
vt 0.729906 0.011979
vt 0.723847 0.012576
vt 0.723847 0.012576
vt 0.724361 0.011397
vt 0.723847 0.012576
vt 0.723847 0.012576
vt 0.722855 0.012674
vt 0.703178 0.014612
vt 0.658156 0.028269
vt 0.616663 0.050447
vt 0.580294 0.080294
vt 0.550447 0.116663
vt 0.528269 0.158156
vt 0.514611 0.203179
vt 0.510000 0.250000
vt 0.514612 0.296822
vt 0.528269 0.341844
vt 0.550447 0.383337
vt 0.580295 0.419706
vt 0.616663 0.449553
vt 0.658156 0.471731
vt 0.703179 0.485389
vt 0.703995 0.485469
vt 0.704746 0.487053
vt 0.704487 0.485517
vt 0.704638 0.485532
vt 0.704691 0.485537
vt 0.704691 0.485537
vt 0.711604 0.486218
vt 0.731552 0.488183
vt 0.738465 0.488864
vt 0.738465 0.488864
vt 0.739888 0.488848
vt 0.738465 0.488864
vt 0.738465 0.488864
vt 0.739154 0.488932
vt 0.211604 0.486218
vt 0.204691 0.485537
vt 0.204691 0.485537
vt 0.204974 0.484558
vt 0.204691 0.485537
vt 0.204691 0.485537
vt 0.203995 0.485469
vt 0.203179 0.485389
vt 0.158156 0.471731
vt 0.116663 0.449553
vt 0.080295 0.419706
vt 0.050447 0.383337
vt 0.028269 0.341844
vt 0.014612 0.296822
vt 0.010000 0.250000
vt 0.014611 0.203179
vt 0.028269 0.158156
vt 0.050447 0.116663
vt 0.080294 0.080294
vt 0.116663 0.050447
vt 0.158156 0.028269
vt 0.203178 0.014612
vt 0.482351 1.000000
vt 0.223847 0.012576
vt 0.223847 0.012576
vt 0.229906 0.011979
vt 0.241679 0.010820
vt 0.241679 0.010820
vt 0.241679 0.010820
vt 0.248081 0.010189
vt 0.248081 0.010189
vt 0.247520 0.007693
vt 0.248081 0.010189
vt 0.248081 0.010189
vt 0.249031 0.010095
vt 0.250000 0.010000
vt 0.296822 0.014612
vt 0.341844 0.028269
vt 0.383337 0.050447
vt 0.419706 0.080294
vt 0.449553 0.116663
vt 0.471731 0.158156
vt 0.485388 0.203178
vt 0.490000 0.250000
vt 0.485388 0.296822
vt 0.471731 0.341844
vt 0.449553 0.383337
vt 0.419706 0.419706
vt 0.383337 0.449553
vt 0.341844 0.471731
vt 0.296822 0.485388
vt 0.250000 0.490000
vt 0.239154 0.488932
vt 0.238730 0.490464
vt 0.238667 0.488884
vt 0.238518 0.488869
vt 0.238465 0.488864
vt 0.238465 0.488864
vt 0.231552 0.488183
vt 0.030241 0.500000
vt 0.030241 1.000000
vt 0.030241 0.500000
vt 0.030241 1.000000
vt 0.030527 0.500000
vt 0.030527 1.000000
vn 0.0980 0.0000 -0.9952
vn 0.2903 0.0000 -0.9569
vn 0.4714 0.0000 -0.8819
vn 0.6344 0.0000 -0.7730
vn 0.7730 0.0000 -0.6344
vn 0.8819 0.0000 -0.4714
vn 0.9569 0.0000 -0.2903
vn 0.9952 0.0000 -0.0980
vn 0.9952 0.0000 0.0980
vn 0.9569 0.0000 0.2903
vn 0.8819 0.0000 0.4714
vn 0.7730 0.0000 0.6344
vn 0.6344 0.0000 0.7730
vn 0.4714 0.0000 0.8819
vn 0.2903 0.0000 0.9569
vn 0.0980 0.0000 0.9952
vn 0.0000 0.0000 1.0000
vn -0.2903 0.0000 0.9569
vn -0.4714 0.0000 0.8819
vn -0.6344 0.0000 0.7730
vn -0.7730 0.0000 0.6344
vn -0.8819 0.0000 0.4714
vn -0.9569 0.0000 0.2903
vn -0.9952 0.0000 0.0980
vn -0.9952 0.0000 -0.0980
vn -0.9569 0.0000 -0.2903
vn -0.8819 0.0000 -0.4714
vn -0.7730 0.0000 -0.6344
vn -0.6344 0.0000 -0.7730
vn -0.4714 0.0000 -0.8819
vn -0.2903 0.0000 -0.9569
vn 1.0000 0.0000 0.0031
vn -0.0031 0.0000 1.0000
vn -0.0050 0.0000 1.0000
vn -0.0031 0.0000 -1.0000
vn -0.1336 0.0000 -0.9910
vn -0.3855 0.0000 -0.9227
vn -0.6112 0.0000 -0.7915
vn -0.7952 0.0000 -0.6063
vn -0.9251 0.0000 -0.3798
vn -0.9918 0.0000 -0.1275
vn 0.9910 0.0000 -0.1336
vn 0.9227 0.0000 -0.3855
vn 0.7915 0.0000 -0.6112
vn 0.6063 0.0000 -0.7952
vn 0.3798 0.0000 -0.9251
vn 0.1275 0.0000 -0.9918
vn 0.1579 -0.0000 0.9875
vn 0.4619 -0.0000 0.8869
vn 0.7153 0.0000 0.6989
vn 0.8949 0.0000 0.4462
vn 0.9879 -0.0000 0.1551
vn -0.9900 0.0000 0.1410
vn -0.9070 0.0000 0.4212
vn -0.7384 0.0000 0.6743
vn -0.4876 0.0000 0.8730
vn -0.1729 0.0000 0.9849
vn -0.0019 0.0000 1.0000
vn -0.1929 0.0000 0.9812
vn -0.5474 0.0000 0.8369
vn -0.8259 0.0000 0.5638
vn -0.9803 0.0000 0.1974
vn 0.9802 0.0000 0.1981
vn 0.8297 0.0000 0.5581
vn 0.5530 0.0000 0.8332
vn 0.1920 0.0000 0.9814
vn 0.1800 0.0000 -0.9837
vn 0.5276 0.0000 -0.8495
vn 0.8121 0.0000 -0.5836
vn 0.9775 0.0000 -0.2109
vn 0.0000 -1.0000 0.0000
vn 0.0000 1.0000 0.0000
vn -0.9784 0.0000 -0.2067
vn -0.8131 0.0000 -0.5821
vn -0.5293 0.0000 -0.8484
vn -0.1844 0.0000 -0.9828
usemtl None
s off
f 1/1/1 2/2/1 4/3/1 3/4/1
f 3/4/2 4/3/2 6/5/2 5/6/2
f 5/6/3 6/5/3 8/7/3 7/8/3
f 7/8/4 8/7/4 10/9/4 9/10/4
f 9/10/5 10/9/5 12/11/5 11/12/5
f 11/12/6 12/11/6 14/13/6 13/14/6
f 13/14/7 14/13/7 16/15/7 15/16/7
f 15/16/8 16/15/8 18/17/8 17/18/8
f 17/18/9 18/17/9 20/19/9 19/20/9
f 19/20/10 20/19/10 22/21/10 21/22/10
f 21/22/11 22/21/11 24/23/11 23/24/11
f 23/24/12 24/23/12 26/25/12 25/26/12
f 25/26/13 26/25/13 28/27/13 27/28/13
f 27/28/14 28/27/14 30/29/14 29/30/14
f 29/30/15 30/29/15 32/31/15 31/32/15
f 31/32/16 32/31/16 34/33/16 33/34/16
f 127/35/17 121/36/17 108/37/17 113/38/17
f 35/39/18 36/40/18 38/41/18 37/42/18
f 37/42/19 38/41/19 40/43/19 39/44/19
f 39/44/20 40/43/20 42/45/20 41/46/20
f 41/46/21 42/45/21 44/47/21 43/48/21
f 43/48/22 44/47/22 46/49/22 45/50/22
f 45/50/23 46/49/23 48/51/23 47/52/23
f 47/52/24 48/51/24 50/53/24 49/54/24
f 49/54/25 50/53/25 52/55/25 51/56/25
f 51/56/26 52/55/26 54/57/26 53/58/26
f 53/58/27 54/57/27 56/59/27 55/60/27
f 55/60/28 56/59/28 58/61/28 57/62/28
f 57/62/29 58/61/29 60/63/29 59/64/29
f 59/64/30 60/63/30 62/65/30 61/66/30
f 61/66/31 62/65/31 64/67/31 63/68/31
f 147/69/17 141/70/17 82/71/17 88/72/17
f 132/73/32 136/74/32 96/75/32 101/76/32
f 33/34/33 34/33/33 137/77/33 131/78/33
f 102/79/17 95/80/17 65/81/17 66/82/17
f 66/82/17 65/81/17 119/83/17 120/84/17
f 122/85/34 126/86/34 36/40/34 35/39/34
f 152/87/17 156/88/17 68/89/17 74/90/17
f 63/68/35 64/67/35 157/91/35 151/92/35
f 142/93/35 146/94/35 2/95/35 1/96/35
f 67/97/36 75/98/36 80/99/36 69/100/36
f 69/100/37 80/99/37 79/101/37 70/102/37
f 70/102/38 79/101/38 78/103/38 71/104/38
f 71/104/39 78/103/39 77/105/39 72/106/39
f 72/106/40 77/105/40 76/107/40 73/108/40
f 73/108/41 76/107/41 74/90/41 68/89/41
f 88/72/42 82/71/42 87/109/42 90/110/42
f 90/110/43 87/109/43 86/111/43 91/112/43
f 91/112/44 86/111/44 85/113/44 92/114/44
f 92/114/45 85/113/45 84/115/45 93/116/45
f 93/116/46 84/115/46 83/117/46 94/118/46
f 94/118/47 83/117/47 81/119/47 89/120/47
f 89/120/35 81/119/35 75/98/35 67/97/35
f 95/80/48 102/79/48 106/121/48 97/122/48
f 97/122/49 106/121/49 105/123/49 98/124/49
f 98/124/50 105/123/50 104/125/50 99/126/50
f 99/126/51 104/125/51 103/127/51 100/128/51
f 100/128/52 103/127/52 101/76/52 96/75/52
f 113/38/53 108/37/53 112/129/53 115/130/53
f 115/130/54 112/129/54 111/131/54 116/132/54
f 116/132/55 111/131/55 110/133/55 117/134/55
f 117/134/56 110/133/56 109/135/56 118/136/56
f 118/136/57 109/135/57 107/137/57 114/138/57
f 120/84/58 119/83/58 114/138/58 107/137/58
f 126/86/59 122/85/59 125/139/59 128/140/59
f 128/140/60 125/139/60 124/141/60 129/142/60
f 129/142/61 124/141/61 123/143/61 130/144/61
f 130/144/62 123/143/62 121/36/62 127/35/62
f 136/74/63 132/73/63 135/145/63 138/146/63
f 138/146/64 135/145/64 134/147/64 139/148/64
f 139/148/65 134/147/65 133/149/65 140/150/65
f 140/150/66 133/149/66 131/78/66 137/77/66
f 146/94/67 142/93/67 145/151/67 148/152/67
f 148/152/68 145/151/68 144/153/68 149/154/68
f 149/154/69 144/153/69 143/155/69 150/156/69
f 150/156/70 143/155/70 141/70/70 147/69/70
f 1/157/71 3/158/71 5/159/71 7/160/71 9/161/71 11/162/71 13/163/71 15/164/71 17/165/71 19/166/71 21/167/71 23/168/71 25/169/71 27/170/71 29/171/71 31/172/71 33/173/71 131/174/71 133/175/71 134/176/71 135/177/71 132/178/71 101/179/71 103/127/71 104/125/71 105/123/71 106/121/71 102/180/71 66/181/71 120/84/71 107/182/71 109/135/71 110/133/71 111/131/71 112/129/71 108/183/71 121/184/71 123/185/71 124/186/71 125/187/71 122/188/71 35/189/71 37/190/71 39/191/71 41/192/71 43/193/71 45/194/71 47/195/71 49/196/71 51/197/71 53/198/71 55/199/71 57/200/71 59/201/71 61/202/71 63/203/71 151/204/71 153/205/71 154/206/71 155/207/71 152/208/71 74/209/71 76/107/71 77/105/71 78/103/71 79/101/71 80/99/71 75/210/71 81/211/71 83/117/71 84/115/71 85/113/71 86/111/71 87/109/71 82/212/71 141/213/71 143/214/71 144/215/71 145/216/71 142/217/71
f 67/218/72 69/100/72 70/102/72 71/104/72 72/106/72 73/108/72 68/219/72 156/220/72 158/221/72 159/222/72 160/223/72 157/224/72 64/225/72 62/226/72 60/227/72 58/228/72 56/229/72 54/230/72 52/231/72 50/232/72 48/233/72 46/234/72 44/235/72 42/236/72 40/237/72 38/238/72 36/239/72 126/86/72 128/140/72 129/240/72 130/144/72 127/241/72 113/242/72 115/130/72 116/132/72 117/134/72 118/136/72 114/243/72 119/244/72 65/245/72 95/246/72 97/122/72 98/124/72 99/126/72 100/128/72 96/247/72 136/248/72 138/249/72 139/250/72 140/251/72 137/252/72 34/253/72 32/254/72 30/255/72 28/256/72 26/257/72 24/258/72 22/259/72 20/260/72 18/261/72 16/262/72 14/263/72 12/264/72 10/265/72 8/266/72 6/267/72 4/268/72 2/269/72 146/270/72 148/271/72 149/272/72 150/273/72 147/274/72 88/275/72 90/110/72 91/112/72 92/114/72 93/116/72 94/118/72 89/276/72
f 156/88/73 152/87/73 155/277/73 158/278/73
f 158/278/74 155/277/74 154/279/74 159/280/74
f 159/280/75 154/279/75 153/281/75 160/282/75
f 160/282/76 153/281/76 151/92/76 157/91/76
l 36 161
