# Blender v2.83.4 OBJ File: 'platform_1.blend'
# www.blender.org
mtllib platform_1.mtl
o Cube
v 2.000000 0.800000 -1.707735
v 1.707735 0.800000 -2.000000
v 1.985695 0.800000 -1.798050
v 1.944182 0.800000 -1.879524
v 1.879524 0.800000 -1.944182
v 1.798050 0.800000 -1.985695
v 1.707735 0.000000 -2.000000
v 2.000000 0.000000 -1.707735
v 1.798050 0.000000 -1.985695
v 1.879524 0.000000 -1.944182
v 1.944182 0.000000 -1.879524
v 1.985695 0.000000 -1.798050
v 1.707735 0.800000 2.000000
v 2.000000 0.800000 1.707735
v 1.798050 0.800000 1.985695
v 1.879524 0.800000 1.944182
v 1.944182 0.800000 1.879524
v 1.985695 0.800000 1.798050
v 2.000000 0.000000 1.707735
v 1.707735 0.000000 2.000000
v 1.985695 0.000000 1.798050
v 1.944182 0.000000 1.879524
v 1.879524 0.000000 1.944182
v 1.798050 0.000000 1.985695
v -1.707735 0.800000 -2.000000
v -2.000000 0.800000 -1.707735
v -1.798050 0.800000 -1.985695
v -1.879524 0.800000 -1.944182
v -1.944182 0.800000 -1.879524
v -1.985695 0.800000 -1.798050
v -2.000000 0.000000 -1.707735
v -1.707735 0.000000 -2.000000
v -1.985695 0.000000 -1.798050
v -1.944182 0.000000 -1.879524
v -1.879524 0.000000 -1.944182
v -1.798050 0.000000 -1.985695
v -2.000000 0.800000 1.707735
v -1.707735 0.800000 2.000000
v -1.985695 0.800000 1.798050
v -1.944182 0.800000 1.879524
v -1.879524 0.800000 1.944182
v -1.798050 0.800000 1.985695
v -1.707735 0.000000 2.000000
v -2.000000 0.000000 1.707735
v -1.798050 0.000000 1.985695
v -1.879524 0.000000 1.944182
v -1.944182 0.000000 1.879524
v -1.985695 0.000000 1.798050
v -1.707735 0.266667 -2.000000
v -2.000000 0.266667 -1.707735
v -1.798050 0.266667 -1.985695
v -1.879524 0.266667 -1.944182
v -1.944182 0.266667 -1.879524
v -1.985695 0.266667 -1.798050
v 2.000000 0.266667 -1.707735
v 1.707735 0.266667 -2.000000
v 1.985695 0.266667 -1.798050
v 1.944182 0.266667 -1.879524
v 1.879524 0.266667 -1.944182
v 1.798050 0.266667 -1.985695
v -2.000000 0.533333 -1.707735
v -1.707735 0.533333 -2.000000
v -1.985695 0.533333 -1.798050
v -1.944182 0.533333 -1.879524
v -1.879524 0.533333 -1.944182
v -1.798050 0.533333 -1.985695
v 1.707735 0.533333 -2.000000
v 2.000000 0.533333 -1.707735
v 1.798050 0.533333 -1.985695
v 1.879524 0.533333 -1.944182
v 1.944182 0.533333 -1.879524
v 1.985695 0.533333 -1.798050
v 1.707735 0.266667 2.000000
v 2.000000 0.266667 1.707735
v 1.798050 0.266667 1.985695
v 1.879524 0.266667 1.944182
v 1.944182 0.266667 1.879524
v 1.985695 0.266667 1.798050
v 2.000000 0.533333 1.707735
v 1.707735 0.533333 2.000000
v 1.985695 0.533333 1.798050
v 1.944182 0.533333 1.879524
v 1.879524 0.533333 1.944182
v 1.798050 0.533333 1.985695
v -2.000000 0.266667 1.707735
v -1.707735 0.266667 2.000000
v -1.985695 0.266667 1.798050
v -1.944182 0.266667 1.879524
v -1.879524 0.266667 1.944182
v -1.798050 0.266667 1.985695
v -1.707735 0.533333 2.000000
v -2.000000 0.533333 1.707735
v -1.798050 0.533333 1.985695
v -1.879524 0.533333 1.944182
v -1.944182 0.533333 1.879524
v -1.985695 0.533333 1.798050
v 1.715783 0.533333 -1.415407
v 1.415407 0.533333 -1.715783
v 1.701082 0.533333 -1.508229
v 1.658416 0.533333 -1.591964
v 1.591964 0.533333 -1.658416
v 1.508229 0.533333 -1.701082
v 1.415407 0.266667 -1.715783
v 1.715783 0.266667 -1.415407
v 1.508229 0.266667 -1.701082
v 1.591964 0.266667 -1.658416
v 1.658416 0.266667 -1.591964
v 1.701082 0.266667 -1.508229
v -1.415407 0.266667 1.715783
v -1.715783 0.266667 1.415407
v -1.508229 0.266667 1.701082
v -1.591964 0.266667 1.658416
v -1.658416 0.266667 1.591964
v -1.701082 0.266667 1.508229
v -1.715783 0.533333 1.415407
v -1.415407 0.533333 1.715783
v -1.701082 0.533333 1.508229
v -1.658416 0.533333 1.591964
v -1.591964 0.533333 1.658416
v -1.508229 0.533333 1.701082
v 1.415407 0.533333 1.715783
v 1.715783 0.533333 1.415407
v 1.508229 0.533333 1.701082
v 1.591964 0.533333 1.658416
v 1.658416 0.533333 1.591964
v 1.701082 0.533333 1.508229
v 1.715783 0.266667 1.415407
v 1.415407 0.266667 1.715783
v 1.701082 0.266667 1.508229
v 1.658416 0.266667 1.591964
v 1.591964 0.266667 1.658416
v 1.508229 0.266667 1.701082
v -1.415407 0.533333 -1.715783
v -1.715783 0.533333 -1.415407
v -1.508229 0.533333 -1.701082
v -1.591964 0.533333 -1.658416
v -1.658416 0.533333 -1.591964
v -1.701082 0.533333 -1.508229
v -1.715783 0.266667 -1.415407
v -1.415407 0.266667 -1.715783
v -1.701082 0.266667 -1.508229
v -1.658416 0.266667 -1.591964
v -1.591964 0.266667 -1.658416
v -1.508229 0.266667 -1.701082
vt 0.541667 0.268267
vt 0.625000 0.268267
vt 0.625000 0.481733
vt 0.541667 0.481733
vt 0.375000 0.768267
vt 0.458333 0.768267
vt 0.458333 0.981733
vt 0.375000 0.981733
vt 0.375000 0.018267
vt 0.458333 0.018267
vt 0.458333 0.231733
vt 0.375000 0.231733
vt 0.541667 0.768267
vt 0.625000 0.768267
vt 0.625000 0.981733
vt 0.541667 0.981733
vt 0.625000 0.518267
vt 0.625298 0.512622
vt 0.626163 0.507530
vt 0.627510 0.496143
vt 0.629207 0.491883
vt 0.643267 0.500000
vt 0.856733 0.500000
vt 0.704126 0.342046
vt 0.705823 0.339516
vt 0.707170 0.330823
vt 0.708035 0.329126
vt 0.875000 0.518267
vt 0.875000 0.731733
vt 0.874106 0.737378
vt 0.871511 0.742470
vt 0.867470 0.746511
vt 0.862378 0.749106
vt 0.856733 0.750000
vt 0.643267 0.750000
vt 0.629207 0.758117
vt 0.627510 0.753857
vt 0.626163 0.742470
vt 0.625298 0.737378
vt 0.625000 0.731733
vt 0.375000 0.268267
vt 0.458333 0.268267
vt 0.458333 0.481733
vt 0.375000 0.481733
vt 0.375000 0.518267
vt 0.458333 0.518267
vt 0.458333 0.731733
vt 0.375000 0.731733
vt 0.125000 0.518267
vt 0.291965 0.329126
vt 0.292830 0.330823
vt 0.294177 0.339516
vt 0.295874 0.342046
vt 0.143267 0.500000
vt 0.356733 0.500000
vt 0.370793 0.491883
vt 0.372490 0.496143
vt 0.373837 0.507530
vt 0.374702 0.512622
vt 0.374702 0.737378
vt 0.373837 0.742470
vt 0.372490 0.753857
vt 0.370793 0.758117
vt 0.356733 0.750000
vt 0.143267 0.750000
vt 0.137622 0.749106
vt 0.132530 0.746511
vt 0.128489 0.742470
vt 0.125894 0.737378
vt 0.125000 0.731733
vt 0.541667 0.018267
vt 0.625000 0.018267
vt 0.625000 0.231733
vt 0.541667 0.231733
vt 0.458333 0.021883
vt 0.541667 0.021883
vt 0.541667 0.228117
vt 0.458333 0.228117
vt 0.458333 0.771883
vt 0.541667 0.771883
vt 0.541667 0.978117
vt 0.458333 0.978117
vt 0.458333 0.271883
vt 0.541667 0.271883
vt 0.541667 0.478117
vt 0.458333 0.478117
vt 0.458333 0.512622
vt 0.458333 0.507530
vt 0.458333 0.492470
vt 0.458333 0.487378
vt 0.625000 0.987378
vt 0.541667 0.987378
vt 0.625000 0.992470
vt 0.541667 0.992470
vt 0.625000 1.000000
vt 0.541667 1.000000
vt 0.541667 0.007530
vt 0.625000 0.007530
vt 0.625000 0.012622
vt 0.541667 0.012622
vt 0.458333 0.762622
vt 0.458333 0.757530
vt 0.458333 0.742470
vt 0.458333 0.737378
vt 0.458333 0.262622
vt 0.458333 0.257530
vt 0.458333 0.242470
vt 0.458333 0.237378
vt 0.541667 0.518267
vt 0.541667 0.512622
vt 0.541667 0.507530
vt 0.541667 0.492470
vt 0.541667 0.487378
vt 0.458333 0.987378
vt 0.375000 0.987378
vt 0.458333 0.992470
vt 0.375000 0.992470
vt 0.458333 1.000000
vt 0.375000 1.000000
vt 0.375000 0.007530
vt 0.458333 0.007530
vt 0.458333 0.012622
vt 0.375000 0.012622
vt 0.541667 0.762622
vt 0.541667 0.757530
vt 0.541667 0.742470
vt 0.541667 0.737378
vt 0.541667 0.731733
vt 0.541667 0.262622
vt 0.541667 0.257530
vt 0.541667 0.242470
vt 0.541667 0.237378
vt 0.458333 0.011775
vt 0.458333 0.000000
vt 0.458333 0.000000
vt 0.458333 0.000000
vt 0.458333 0.753489
vt 0.458333 0.750894
vt 0.458333 0.503489
vt 0.458333 0.500894
vt 0.458333 0.498929
vt 0.458333 0.521883
vt 0.458333 0.728117
vt 0.458333 0.734879
vt 0.458333 0.740979
vt 0.458333 0.745821
vt 0.458333 0.748929
vt 0.458333 0.985656
vt 0.458333 0.990979
vt 0.458333 0.995821
vt 0.458333 0.998929
vt 0.458333 0.234879
vt 0.458333 0.240979
vt 0.458333 0.245821
vt 0.458333 0.248929
vt 0.458333 0.250894
vt 0.458333 0.253489
vt 0.458333 0.484879
vt 0.458333 0.490979
vt 0.458333 0.495821
vt 0.541667 0.765121
vt 0.541667 0.759021
vt 0.541667 0.754179
vt 0.541667 0.751071
vt 0.541667 0.749106
vt 0.541667 0.988225
vt 0.541667 1.000000
vt 0.541667 1.000000
vt 0.541667 0.001071
vt 0.541667 0.746511
vt 0.541667 0.728117
vt 0.541667 0.521883
vt 0.541667 0.515121
vt 0.541667 0.509021
vt 0.541667 0.504179
vt 0.541667 0.501071
vt 0.541667 0.265121
vt 0.541667 0.259021
vt 0.541667 0.254179
vt 0.541667 0.251071
vt 0.541667 0.014344
vt 0.541667 0.009021
vt 0.541667 0.004179
vt 0.541667 0.246511
vt 0.541667 0.249106
vt 0.541667 0.496511
vt 0.541667 0.499106
vt 0.458333 0.515121
vt 0.458333 0.509021
vt 0.541667 0.490979
vt 0.541667 0.484879
vt 0.541667 0.984879
vt 0.458333 0.984879
vt 0.541667 0.990979
vt 0.541667 1.000000
vt 0.458333 1.000000
vt 0.458333 0.009021
vt 0.541667 0.015121
vt 0.458333 0.015121
vt 0.458333 0.765121
vt 0.458333 0.759021
vt 0.541667 0.740979
vt 0.541667 0.734879
vt 0.458333 0.265121
vt 0.458333 0.259021
vt 0.541667 0.240979
vt 0.541667 0.234879
vn 0.0000 0.0000 -1.0000
vn 0.0000 0.0000 1.0000
vn -1.0000 0.0000 0.0000
vn 0.0000 1.0000 -0.0000
vn 1.0000 0.0000 0.0000
vn 0.0000 -1.0000 0.0000
vn 0.9877 0.0000 -0.1564
vn 0.8910 0.0000 -0.4540
vn 0.7071 0.0000 -0.7071
vn 0.4540 0.0000 -0.8910
vn 0.1564 0.0000 -0.9877
vn -0.1564 0.0000 0.9877
vn -0.4540 0.0000 0.8910
vn -0.7071 0.0000 0.7071
vn -0.8910 0.0000 0.4540
vn -0.9877 0.0000 0.1564
vn 0.1564 0.0000 0.9877
vn 0.4540 0.0000 0.8910
vn 0.7071 0.0000 0.7071
vn 0.8910 0.0000 0.4540
vn 0.9877 0.0000 0.1564
vn -0.1564 0.0000 -0.9877
vn -0.4540 0.0000 -0.8910
vn -0.7071 0.0000 -0.7071
vn -0.8910 0.0000 -0.4540
vn -0.9877 0.0000 -0.1564
usemtl Material
s off
f 62/1/1 25/2/1 2/3/1 67/4/1
f 20/5/2 73/6/2 86/7/2 43/8/2
f 44/9/3 85/10/3 50/11/3 31/12/3
f 80/13/2 13/14/2 38/15/2 91/16/2
f 1/17/4 3/18/4 4/19/4 5/20/4 6/21/4 2/22/4 25/23/4 27/24/4 28/25/4 29/26/4 30/27/4 26/28/4 37/29/4 39/30/4 40/31/4 41/32/4 42/33/4 38/34/4 13/35/4 15/36/4 16/37/4 17/38/4 18/39/4 14/40/4
f 32/41/1 49/42/1 56/43/1 7/44/1
f 8/45/5 55/46/5 74/47/5 19/48/5
f 31/49/6 33/50/6 34/51/6 35/52/6 36/53/6 32/54/6 7/55/6 9/56/6 10/57/6 11/58/6 12/59/6 8/45/6 19/48/6 21/60/6 22/61/6 23/62/6 24/63/6 20/64/6 43/65/6 45/66/6 46/67/6 47/68/6 48/69/6 44/70/6
f 92/71/3 37/72/3 26/73/3 61/74/3
f 110/75/3 115/76/3 134/77/3 139/78/3
f 128/79/2 121/80/2 116/81/2 109/82/2
f 140/83/1 133/84/1 98/85/1 103/86/1
f 55/46/7 8/45/7 12/59/7 57/87/7
f 57/87/8 12/59/8 11/58/8 58/88/8
f 58/88/9 11/58/9 10/57/9 59/89/9
f 59/89/10 10/57/10 9/56/10 60/90/10
f 60/90/11 9/56/11 7/44/11 56/43/11
f 91/16/12 38/15/12 42/91/12 93/92/12
f 93/92/13 42/91/13 41/93/13 94/94/13
f 94/94/14 41/93/14 40/95/14 95/96/14
f 95/97/15 40/98/15 39/99/15 96/100/15
f 96/100/16 39/99/16 37/72/16 92/71/16
f 73/6/17 20/5/17 24/63/17 75/101/17
f 75/101/18 24/63/18 23/62/18 76/102/18
f 76/102/19 23/62/19 22/61/19 77/103/19
f 77/103/20 22/61/20 21/60/20 78/104/20
f 78/104/21 21/60/21 19/48/21 74/47/21
f 49/42/22 32/41/22 36/53/22 51/105/22
f 51/105/23 36/53/23 35/52/23 52/106/23
f 52/106/24 35/52/24 34/51/24 53/107/24
f 53/107/25 34/51/25 33/50/25 54/108/25
f 54/108/26 33/50/26 31/12/26 50/11/26
f 1/17/7 68/109/7 72/110/7 3/18/7
f 3/18/8 72/110/8 71/111/8 4/19/8
f 4/19/9 71/111/9 70/112/9 5/20/9
f 5/20/10 70/112/10 69/113/10 6/21/10
f 6/21/11 69/113/11 67/4/11 2/3/11
f 43/8/12 86/7/12 90/114/12 45/115/12
f 45/115/13 90/114/13 89/116/13 46/117/13
f 46/117/14 89/116/14 88/118/14 47/119/14
f 47/120/15 88/121/15 87/122/15 48/123/15
f 48/123/16 87/122/16 85/10/16 44/9/16
f 13/14/17 80/13/17 84/124/17 15/36/17
f 15/36/18 84/124/18 83/125/18 16/37/18
f 16/37/19 83/125/19 82/126/19 17/38/19
f 17/38/20 82/126/20 81/127/20 18/39/20
f 18/39/21 81/127/21 79/128/21 14/40/21
f 25/2/22 62/1/22 66/129/22 27/24/22
f 27/24/23 66/129/23 65/130/23 28/25/23
f 28/25/24 65/130/24 64/131/24 29/26/24
f 29/26/25 64/131/25 63/132/25 30/27/25
f 30/27/26 63/132/26 61/74/26 26/73/26
f 68/109/5 1/17/5 14/40/5 79/128/5
f 85/10/4 87/133/4 88/134/4 89/135/4 90/136/4 86/7/4 73/6/4 75/101/4 76/102/4 77/137/4 78/138/4 74/47/4 55/46/4 57/87/4 58/88/4 59/139/4 60/140/4 108/141/4 104/142/4 127/143/4 129/144/4 130/145/4 131/146/4 132/147/4 128/79/4 109/82/4 111/148/4 112/149/4 113/150/4 114/151/4 110/75/4 139/78/4 141/152/4 142/153/4 143/154/4 144/155/4 54/156/4 50/11/4
f 49/42/4 51/105/4 52/106/4 53/157/4 54/156/4 144/155/4 140/83/4 103/86/4 105/158/4 106/159/4 107/160/4 108/141/4 60/140/4 56/43/4
f 121/80/6 123/161/6 124/162/6 125/163/6 126/164/6 84/165/6 80/13/6 91/16/6 93/166/6 94/167/6 95/96/6 96/168/6 120/169/6 116/81/6
f 79/128/6 81/127/6 82/126/6 83/170/6 84/165/6 126/164/6 122/171/6 97/172/6 99/173/6 100/174/6 101/175/6 102/176/6 98/85/6 133/84/6 135/177/6 136/178/6 137/179/6 138/180/6 134/77/6 115/76/6 117/181/6 118/182/6 119/183/6 120/169/6 96/168/6 92/71/6 61/74/6 63/132/6 64/131/6 65/184/6 66/185/6 62/1/6 67/4/6 69/113/6 70/112/6 71/186/6 72/187/6 68/109/6
f 97/172/7 104/142/7 108/188/7 99/173/7
f 99/173/8 108/188/8 107/189/8 100/174/8
f 100/174/9 107/189/9 106/159/9 101/190/9
f 101/190/10 106/159/10 105/158/10 102/191/10
f 102/191/11 105/158/11 103/86/11 98/85/11
f 109/82/12 116/81/12 120/192/12 111/193/12
f 111/193/13 120/192/13 119/194/13 112/149/13
f 112/149/14 119/194/14 118/195/14 113/196/14
f 113/197/15 118/182/15 117/198/15 114/199/15
f 114/199/16 117/198/16 115/76/16 110/75/16
f 121/80/17 128/79/17 132/200/17 123/161/17
f 123/161/18 132/200/18 131/201/18 124/162/18
f 124/162/19 131/201/19 130/145/19 125/202/19
f 125/202/20 130/145/20 129/144/20 126/203/20
f 126/203/21 129/144/21 127/143/21 122/171/21
f 133/84/22 140/83/22 144/204/22 135/177/22
f 135/177/23 144/204/23 143/205/23 136/178/23
f 136/178/24 143/205/24 142/153/24 137/206/24
f 137/206/25 142/153/25 141/152/25 138/207/25
f 138/207/26 141/152/26 139/78/26 134/77/26
f 104/142/5 97/172/5 122/171/5 127/143/5
