<svg xmlns="http://www.w3.org/2000/svg" viewBox="0 0 100 126.97"><defs><style>.cls-1{fill:#2c95bf;}.cls-2{fill:#fafaff;}</style></defs><g id="Слой_2" data-name="Слой 2"><g id="Game_Over" data-name="Game Over"><path class="cls-1" d="M83,125.86v-3.58l9.39-18.56V97.8H88.7v6.29H83.63V97c0-2.39,1-3.31,4-3.31h6c2.6,0,3.81.92,3.81,3.31v6.75a6.43,6.43,0,0,1-.74,3.31l-7.48,14.65H97.9v4.18Z"/><path class="cls-2" d="M83,120.86v-3.58l9.39-18.56V92.8H88.7v6.29H83.63V92c0-2.39,1-3.31,4-3.31h6c2.6,0,3.81.92,3.81,3.31v6.75a6.43,6.43,0,0,1-.74,3.31l-7.48,14.65H97.9v4.18Z"/><path class="cls-1" d="M0,7.65V78.31A2.67,2.67,0,0,0,2.68,81H97.32A2.67,2.67,0,0,0,100,78.31V7.65A2.67,2.67,0,0,0,97.32,5H2.68A2.67,2.67,0,0,0,0,7.65ZM44.52,10.9H56.16v7.74H44.52ZM25,10.9H36.65v7.74H25ZM16.78,75.24H5.14V67.5H16.78Zm.34-56.6H5.48V10.9H17.12ZM36.3,75.24H24.66V67.5H36.3Zm19.52,0H44.18V67.5H55.82Zm2.92-28.31L41.26,56.35c-4.06,2.18-7.35,0-7.35-4.89v-17c0-4.89,3.29-7.08,7.35-4.89L58.74,39C62.8,41.21,62.8,44.75,58.74,46.93Zm16.6,28.31H63.7V67.5H75.34Zm.34-56.6H64V10.9H75.68Zm19.18,56.6H83.22V67.5H94.86Zm.35-56.6H83.56V10.9H95.21Z"/><path class="cls-2" d="M0,2.65V73.31A2.67,2.67,0,0,0,2.68,76H97.32A2.67,2.67,0,0,0,100,73.31V2.65A2.67,2.67,0,0,0,97.32,0H2.68A2.67,2.67,0,0,0,0,2.65ZM44.52,5.9H56.16v7.74H44.52ZM25,5.9H36.65v7.74H25ZM16.78,70.24H5.14V62.5H16.78Zm.34-56.6H5.48V5.9H17.12ZM36.3,70.24H24.66V62.5H36.3Zm19.52,0H44.18V62.5H55.82Zm2.92-28.31L41.26,51.35c-4.06,2.18-7.35,0-7.35-4.89v-17c0-4.89,3.29-7.08,7.35-4.89L58.74,34C62.8,36.21,62.8,39.75,58.74,41.93Zm16.6,28.31H63.7V62.5H75.34Zm.34-56.6H64V5.9H75.68Zm19.18,56.6H83.22V62.5H94.86Zm.35-56.6H83.56V5.9H95.21Z"/><path class="cls-1" d="M21,89.87a18.55,18.55,0,1,0,18.68,18.48A18.72,18.72,0,0,0,21,89.87Zm0,32.75a14.2,14.2,0,1,1,0-28.4,14.2,14.2,0,1,1,0,28.4Z"/><path class="cls-2" d="M21,84.87a18.55,18.55,0,1,0,18.68,18.48A18.72,18.72,0,0,0,21,84.87Zm0,32.75a14.2,14.2,0,1,1,0-28.4,14.2,14.2,0,1,1,0,28.4Z"/><path class="cls-1" d="M61.94,126.07l-1.4-4.34c-.62-2-1-3.89-1-3.89a38.39,38.39,0,0,1-1.14,3.92l-1.53,4.31H53.09l4.26-11.45L53,103.56h3.94l1.14,3.35c.74,2.19,1.26,4.31,1.26,4.31s.46-2,1.21-4.31l1.1-3.35h3.74l-4,11,4.36,11.48Z"/><path class="cls-2" d="M61.94,121.07l-1.4-4.34c-.62-2-1-3.89-1-3.89a38.39,38.39,0,0,1-1.14,3.92l-1.53,4.31H53.09l4.26-11.45L53,98.56h3.94l1.14,3.35c.74,2.19,1.26,4.31,1.26,4.31s.46-2,1.21-4.31l1.1-3.35h3.74l-4,11,4.36,11.48Z"/><path class="cls-1" d="M23.23,99.91a1.09,1.09,0,0,1,1.1,1.09,1.1,1.1,0,0,0,2.2,0,3.28,3.28,0,0,0-3.3-3.26h-1.1V96.65a1.1,1.1,0,0,0-2.2,0v1.09H18.69a3.28,3.28,0,0,0-3.3,3.26v2.17a3.27,3.27,0,0,0,3.3,3.26h1.24v4.5H18.69a1.08,1.08,0,0,1-1.1-1.09,1.1,1.1,0,0,0-2.2,0,3.28,3.28,0,0,0,3.3,3.26h1.24v1.09a1.1,1.1,0,0,0,2.2,0V113.1h1.1a3.28,3.28,0,0,0,3.3-3.26v-2.32a3.28,3.28,0,0,0-3.3-3.26h-1.1V99.91Zm-3.3,4.35H18.69a1.08,1.08,0,0,1-1.1-1.09V101a1.08,1.08,0,0,1,1.1-1.09h1.24Zm3.3,2.17a1.09,1.09,0,0,1,1.1,1.09v2.32a1.09,1.09,0,0,1-1.1,1.09h-1.1v-4.5Z"/><path class="cls-2" d="M23.23,97.91A1.09,1.09,0,0,1,24.33,99a1.1,1.1,0,0,0,2.2,0,3.28,3.28,0,0,0-3.3-3.26h-1.1V94.65a1.1,1.1,0,0,0-2.2,0v1.09H18.69A3.28,3.28,0,0,0,15.39,99v2.17a3.27,3.27,0,0,0,3.3,3.26h1.24v4.5H18.69a1.08,1.08,0,0,1-1.1-1.09,1.1,1.1,0,0,0-2.2,0,3.28,3.28,0,0,0,3.3,3.26h1.24v1.09a1.1,1.1,0,0,0,2.2,0V111.1h1.1a3.28,3.28,0,0,0,3.3-3.26v-2.32a3.28,3.28,0,0,0-3.3-3.26h-1.1V97.91Zm-3.3,4.35H18.69a1.08,1.08,0,0,1-1.1-1.09V99a1.08,1.08,0,0,1,1.1-1.09h1.24Zm3.3,2.17a1.09,1.09,0,0,1,1.1,1.09v2.32a1.09,1.09,0,0,1-1.1,1.09h-1.1v-4.5Z"/></g></g></svg>