<svg xmlns="http://www.w3.org/2000/svg" viewBox="0 0 108 107"><defs><style>.cls-1{fill:#d8af32;}.cls-2{fill:#fafaff;}</style></defs><g id="Слой_2" data-name="Слой 2"><g id="Game_Over" data-name="Game Over"><path class="cls-1" d="M106.19,52.19,89.82,35.92V17.11a6.19,6.19,0,0,0-12.38,0V23.6L65.25,11.49a16.34,16.34,0,0,0-22.51,0L1.81,52.19a6.15,6.15,0,0,0,0,8.71,6.23,6.23,0,0,0,8.76,0L51.49,20.2a3.66,3.66,0,0,1,5,0L97.43,60.9a6.18,6.18,0,1,0,8.76-8.71Z"/><path class="cls-1" d="M56.15,31.88a3.05,3.05,0,0,0-4.3,0l-36,35.79A3,3,0,0,0,15,69.81v34.44A2.75,2.75,0,0,0,17.71,107H43.94V79.55H64.06V107H90.29A2.75,2.75,0,0,0,93,104.25V69.81a3,3,0,0,0-.9-2.14Z"/><path class="cls-2" d="M106.19,45.19,89.82,28.92V10.11a6.19,6.19,0,0,0-12.38,0V16.6L65.25,4.49a16.34,16.34,0,0,0-22.51,0L1.81,45.19a6.15,6.15,0,0,0,0,8.71,6.23,6.23,0,0,0,8.76,0L51.49,13.2a3.66,3.66,0,0,1,5,0L97.43,53.9a6.18,6.18,0,1,0,8.76-8.71Z"/><path class="cls-2" d="M56.15,24.88a3.05,3.05,0,0,0-4.3,0l-36,35.79A3,3,0,0,0,15,62.81V97.25A2.75,2.75,0,0,0,17.71,100H43.94V72.55H64.06V100H90.29A2.75,2.75,0,0,0,93,97.25V62.81a3,3,0,0,0-.9-2.14Z"/></g></g></svg>