<svg xmlns="http://www.w3.org/2000/svg" viewBox="0 0 216 216"><defs><style>.cls-1{fill:#008bc6;}.cls-2{fill:#00a6ed;}.cls-3{fill:#fff;}</style></defs><g id="Слой_2" data-name="Слой 2"><g id="Game_Over" data-name="Game Over"><rect class="cls-1" width="216" height="216" rx="18"/><rect class="cls-2" width="216" height="198" rx="18"/><path class="cls-1" d="M154.65,162.84h9.53q4,0,4,3.43t-3.74,3.42H147.1q-4.07,0-4.06-3.42a4.09,4.09,0,0,1,1.19-2.67l6.66-7.59a93.4,93.4,0,0,0,6.3-7.95,8.7,8.7,0,0,0,1.83-4.82,4.11,4.11,0,0,0-1.05-2.85,3.5,3.5,0,0,0-2.71-1.17,3.81,3.81,0,0,0-3.63,2.19,24.92,24.92,0,0,0-1.1,3q-1.07,3.27-3.38,3.27a3.58,3.58,0,0,1-3.81-3.8,11.12,11.12,0,0,1,3.71-8.36,12,12,0,0,1,8.54-3.45,11.83,11.83,0,0,1,8.21,2.89,10.15,10.15,0,0,1,3.33,7.92q0,4.8-4.58,10.62Z"/><path class="cls-3" d="M154.65,157.84h9.53q4,0,4,3.43t-3.74,3.42H147.1q-4.07,0-4.06-3.42a4.09,4.09,0,0,1,1.19-2.67l6.66-7.59a93.4,93.4,0,0,0,6.3-7.95,8.7,8.7,0,0,0,1.83-4.82,4.11,4.11,0,0,0-1.05-2.85,3.5,3.5,0,0,0-2.71-1.17,3.81,3.81,0,0,0-3.63,2.19,24.92,24.92,0,0,0-1.1,3q-1.07,3.27-3.38,3.27a3.58,3.58,0,0,1-3.81-3.8,11.12,11.12,0,0,1,3.71-8.36,12,12,0,0,1,8.54-3.45,11.83,11.83,0,0,1,8.21,2.89,10.15,10.15,0,0,1,3.33,7.92q0,4.8-4.58,10.62Z"/><path class="cls-1" d="M54.35,33v80a3,3,0,0,0,3,3h106a3,3,0,0,0,3-3V33a3,3,0,0,0-3-3h-106A3,3,0,0,0,54.35,33Zm49.86,3.68h13V45.4h-13Zm-21.86,0h13V45.4h-13Zm-9.21,72.86h-13v-8.77h13Zm.39-64.09h-13V36.63h13ZM95,109.49H82v-8.77H95Zm21.86,0h-13v-8.77h13Zm3.27-32.06L100.56,88.1c-4.55,2.47-8.24,0-8.24-5.55V63.36c0-5.54,3.69-8,8.24-5.54l19.58,10.66C124.68,71,124.68,75,120.14,77.43Zm18.59,32.06h-13v-8.77h13Zm.39-64.09H126.07V36.63h13.05Zm21.48,64.09h-13v-8.77h13ZM161,45.4h-13V36.63h13Z"/><path class="cls-3" d="M54.35,28v80a3,3,0,0,0,3,3h106a3,3,0,0,0,3-3V28a3,3,0,0,0-3-3h-106A3,3,0,0,0,54.35,28Zm49.86,3.68h13V40.4h-13Zm-21.86,0h13V40.4h-13Zm-9.21,72.86h-13V95.72h13Zm.39-64.09h-13V31.63h13ZM95,104.49H82V95.72H95Zm21.86,0h-13V95.72h13Zm3.27-32.06L100.56,83.1c-4.55,2.47-8.24,0-8.24-5.55V58.36c0-5.54,3.69-8,8.24-5.54l19.58,10.66C124.68,66,124.68,70,120.14,72.43Zm18.59,32.06h-13V95.72h13Zm.39-64.09H126.07V31.63h13.05Zm21.48,64.09h-13V95.72h13ZM161,40.4h-13V31.63h13Z"/><path class="cls-1" d="M77.91,129a21,21,0,1,0,20.91,20.92A21.08,21.08,0,0,0,77.91,129Zm0,37.08a16.08,16.08,0,1,1,0-32.16,16.08,16.08,0,0,1,0,32.16Z"/><path class="cls-3" d="M77.91,124a21,21,0,1,0,20.91,20.92A21.08,21.08,0,0,0,77.91,124Zm0,37.08a16.08,16.08,0,1,1,0-32.16,16.08,16.08,0,0,1,0,32.16Z"/><path class="cls-1" d="M80.37,140.76A1.23,1.23,0,0,1,81.6,142a1.23,1.23,0,0,0,2.46,0,3.69,3.69,0,0,0-3.69-3.7H79.14v-1.23a1.24,1.24,0,0,0-2.47,0v1.23H75.28a3.69,3.69,0,0,0-3.69,3.7v2.46a3.69,3.69,0,0,0,3.69,3.69h1.39v5.08H75.28A1.22,1.22,0,0,1,74.05,152a1.23,1.23,0,0,0-2.46,0,3.68,3.68,0,0,0,3.69,3.69h1.39v1.23a1.24,1.24,0,1,0,2.47,0v-1.23h1.23A3.68,3.68,0,0,0,84.06,152v-2.62a3.69,3.69,0,0,0-3.69-3.69H79.14v-4.93Zm-3.7,4.93H75.28a1.22,1.22,0,0,1-1.23-1.23V142a1.23,1.23,0,0,1,1.23-1.24h1.39Zm3.7,2.46a1.22,1.22,0,0,1,1.23,1.23V152a1.22,1.22,0,0,1-1.23,1.23H79.14v-5.08Z"/><path class="cls-3" d="M80.37,138.76A1.23,1.23,0,0,1,81.6,140a1.23,1.23,0,0,0,2.46,0,3.69,3.69,0,0,0-3.69-3.7H79.14v-1.23a1.24,1.24,0,0,0-2.47,0v1.23H75.28a3.69,3.69,0,0,0-3.69,3.7v2.46a3.69,3.69,0,0,0,3.69,3.69h1.39v5.08H75.28A1.22,1.22,0,0,1,74.05,150a1.23,1.23,0,0,0-2.46,0,3.68,3.68,0,0,0,3.69,3.69h1.39v1.23a1.24,1.24,0,1,0,2.47,0v-1.23h1.23A3.68,3.68,0,0,0,84.06,150v-2.62a3.69,3.69,0,0,0-3.69-3.69H79.14v-4.93Zm-3.7,4.93H75.28a1.22,1.22,0,0,1-1.23-1.23V140a1.23,1.23,0,0,1,1.23-1.24h1.39Zm3.7,2.46a1.22,1.22,0,0,1,1.23,1.23V150a1.22,1.22,0,0,1-1.23,1.23H79.14v-5.08Z"/><path class="cls-1" d="M108.89,164.12l7.6-8.64-6.36-7.13a4,4,0,0,1-1.14-2.69,3.39,3.39,0,0,1,1.18-2.57,3.88,3.88,0,0,1,2.68-1.09,3.5,3.5,0,0,1,2.75,1.47l5.26,6.56,5.26-6.56a3.47,3.47,0,0,1,2.74-1.47,3.88,3.88,0,0,1,2.68,1.09,3.39,3.39,0,0,1,1.18,2.57,4,4,0,0,1-1.14,2.69l-6.35,7.13,7.6,8.64a3.81,3.81,0,0,1,1,2.54,3.53,3.53,0,0,1-1,2.65,3.68,3.68,0,0,1-2.68,1,4,4,0,0,1-3.12-1.65l-6.2-7.6-6.2,7.6a4,4,0,0,1-3.13,1.65,3.67,3.67,0,0,1-2.66-1,3.49,3.49,0,0,1-1-2.62A3.76,3.76,0,0,1,108.89,164.12Z"/><path class="cls-3" d="M108.89,159.12l7.6-8.64-6.36-7.13a4,4,0,0,1-1.14-2.69,3.39,3.39,0,0,1,1.18-2.57,3.88,3.88,0,0,1,2.68-1.09,3.5,3.5,0,0,1,2.75,1.47l5.26,6.56,5.26-6.56a3.47,3.47,0,0,1,2.74-1.47,3.88,3.88,0,0,1,2.68,1.09,3.39,3.39,0,0,1,1.18,2.57,4,4,0,0,1-1.14,2.69l-6.35,7.13,7.6,8.64a3.81,3.81,0,0,1,1,2.54,3.53,3.53,0,0,1-1,2.65,3.68,3.68,0,0,1-2.68,1,4,4,0,0,1-3.12-1.65l-6.2-7.6-6.2,7.6a4,4,0,0,1-3.13,1.65,3.67,3.67,0,0,1-2.66-1,3.49,3.49,0,0,1-1-2.62A3.76,3.76,0,0,1,108.89,159.12Z"/></g></g></svg>