<svg xmlns="http://www.w3.org/2000/svg" viewBox="0 0 216 216"><defs><style>.cls-1{fill:#6daf00;}.cls-2{fill:#7dc900;}.cls-3{fill:#fff;}</style></defs><g id="Слой_2" data-name="Слой 2"><g id="Game_Over" data-name="Game Over"><rect class="cls-1" width="216" height="216" rx="18"/><rect class="cls-2" width="216" height="198" rx="18"/><path class="cls-1" d="M113.11,158.43a53.13,53.13,0,0,1-37.43-15.22,5.13,5.13,0,0,1,0-7.37,5.29,5.29,0,0,1,7.4,0,42.5,42.5,0,0,0,30,12.21c23.41,0,42.46-18.67,42.46-41.62S136.51,64.8,113.09,64.8c-21.89,0-40,16.33-42.23,37.21l10-8.82a5.31,5.31,0,0,1,7.39.37,5.1,5.1,0,0,1,1.36,3.77,5.15,5.15,0,0,1-1.73,3.6l-20.36,18A5.23,5.23,0,0,1,64,120.24a4.48,4.48,0,0,1-.73,0,5.23,5.23,0,0,1-3.65-2.25L45,96.33a5.16,5.16,0,0,1,1.48-7.22,5.29,5.29,0,0,1,7.25,1.46l6.77,10c3-25.93,25.44-46.14,52.63-46.14,29.21,0,53,23.32,53,52S142.31,158.43,113.11,158.43Z"/><path class="cls-1" d="M113.09,56.43c28.1,0,51,22.41,51,50s-22.88,50-51,50a51.1,51.1,0,0,1-36-14.65,3.13,3.13,0,0,1,0-4.51,3.28,3.28,0,0,1,4.6,0,44.52,44.52,0,0,0,31.43,12.78c24.52,0,44.46-19.56,44.46-43.62s-20-43.63-44.48-43.63S68.63,82.36,68.63,106.43v.23l13.51-12a3.3,3.3,0,0,1,4.6.24,3.17,3.17,0,0,1-.24,4.51l-20.36,18a3.23,3.23,0,0,1-2.16.83,1.84,1.84,0,0,1-.41,0,3.26,3.26,0,0,1-2.31-1.39L46.61,95.21a3.15,3.15,0,0,1,.92-4.42,3.28,3.28,0,0,1,4.5.9l10.09,14.9v-.16c0-27.57,22.86-50,51-50m0-4c-26.42,0-48.55,18.41-53.79,42.86l-4-5.84a7.27,7.27,0,0,0-10-2A7.11,7.11,0,0,0,42.22,92a7,7,0,0,0,1.08,5.42l14.64,21.62A7.24,7.24,0,0,0,63,122.17a5.78,5.78,0,0,0,1,.07,7.18,7.18,0,0,0,4.84-1.86l20.32-17.95a7.16,7.16,0,0,0,.56-10.2,7.36,7.36,0,0,0-5.39-2.36,7.28,7.28,0,0,0-4.81,1.81l-5.63,5A40.38,40.38,0,0,1,113.09,66.8c22.32,0,40.48,17.78,40.48,39.63s-18.15,39.62-40.46,39.62a40.57,40.57,0,0,1-28.63-11.63,7.27,7.27,0,0,0-10.2,0,7.12,7.12,0,0,0,0,10.22,55.11,55.11,0,0,0,38.83,15.79c30.31,0,55-24.23,55-54s-24.66-54-55-54Z"/><path class="cls-3" d="M113.11,151.43a53.13,53.13,0,0,1-37.43-15.22,5.13,5.13,0,0,1,0-7.37,5.29,5.29,0,0,1,7.4,0,42.5,42.5,0,0,0,30,12.21c23.41,0,42.46-18.67,42.46-41.62S136.51,57.8,113.09,57.8c-21.89,0-40,16.33-42.23,37.21l10-8.82a5.31,5.31,0,0,1,7.39.37,5.1,5.1,0,0,1,1.36,3.77,5.15,5.15,0,0,1-1.73,3.6l-20.36,18A5.23,5.23,0,0,1,64,113.24a4.48,4.48,0,0,1-.73,0,5.23,5.23,0,0,1-3.65-2.25L45,89.33a5.16,5.16,0,0,1,1.48-7.22,5.29,5.29,0,0,1,7.25,1.46l6.77,10c3-25.93,25.44-46.14,52.63-46.14,29.21,0,53,23.32,53,52S142.31,151.43,113.11,151.43Z"/><path class="cls-3" d="M113.09,49.43c28.1,0,51,22.41,51,50s-22.88,50-51,50a51.1,51.1,0,0,1-36-14.65,3.13,3.13,0,0,1,0-4.51,3.28,3.28,0,0,1,4.6,0,44.52,44.52,0,0,0,31.43,12.78c24.52,0,44.46-19.56,44.46-43.62s-20-43.63-44.48-43.63S68.63,75.36,68.63,99.43v.23l13.51-12a3.3,3.3,0,0,1,4.6.24,3.17,3.17,0,0,1-.24,4.51l-20.36,18a3.23,3.23,0,0,1-2.16.83,1.84,1.84,0,0,1-.41,0,3.26,3.26,0,0,1-2.31-1.39L46.61,88.21a3.15,3.15,0,0,1,.92-4.42,3.28,3.28,0,0,1,4.5.9l10.09,14.9v-.16c0-27.57,22.86-50,51-50m0-4c-26.42,0-48.55,18.41-53.79,42.86l-4-5.84a7.27,7.27,0,0,0-10-2A7.11,7.11,0,0,0,42.22,85a7,7,0,0,0,1.08,5.42l14.64,21.62A7.24,7.24,0,0,0,63,115.17a5.78,5.78,0,0,0,1,.07,7.18,7.18,0,0,0,4.84-1.86L89.14,95.43a7.16,7.16,0,0,0,.56-10.2,7.36,7.36,0,0,0-5.39-2.36,7.28,7.28,0,0,0-4.81,1.81l-5.63,5A40.38,40.38,0,0,1,113.09,59.8c22.32,0,40.48,17.78,40.48,39.63s-18.15,39.62-40.46,39.62a40.57,40.57,0,0,1-28.63-11.63,7.27,7.27,0,0,0-10.2,0,7.12,7.12,0,0,0,0,10.22,55.11,55.11,0,0,0,38.83,15.79c30.31,0,55-24.23,55-54s-24.66-54-55-54Z"/></g></g></svg>