<svg xmlns="http://www.w3.org/2000/svg" viewBox="0 0 216 216"><defs><style>.cls-1{fill:#e6a329;}.cls-2{fill:#fdcb3a;}.cls-3{fill:#fff;}</style></defs><g id="Слой_2" data-name="Слой 2"><g id="Game_Over" data-name="Game Over"><rect class="cls-1" width="216" height="216" rx="18"/><rect class="cls-2" width="216" height="198" rx="18"/><path class="cls-1" d="M165,100.76,147.14,83V62.52a6.77,6.77,0,0,0-13.53,0V69.6L120.29,56.39a17.89,17.89,0,0,0-24.6,0L51,100.76a6.68,6.68,0,0,0,0,9.49,6.81,6.81,0,0,0,9.57,0l44.71-44.36a4,4,0,0,1,5.47,0l44.72,44.37a6.82,6.82,0,0,0,9.57,0A6.68,6.68,0,0,0,165,100.76Z"/><path class="cls-1" d="M110.35,78.62a3.36,3.36,0,0,0-4.7,0l-39.33,39a3.3,3.3,0,0,0-1,2.33V157.5a3,3,0,0,0,3,3H97V130.58h22V160.5h28.66a3,3,0,0,0,3-3V120a3.28,3.28,0,0,0-1-2.33Z"/><path class="cls-3" d="M165,93.76,147.14,76V55.52a6.77,6.77,0,0,0-13.53,0V62.6L120.29,49.39a17.89,17.89,0,0,0-24.6,0L51,93.76a6.68,6.68,0,0,0,0,9.49,6.81,6.81,0,0,0,9.57,0l44.71-44.36a4,4,0,0,1,5.47,0l44.72,44.37a6.82,6.82,0,0,0,9.57,0A6.68,6.68,0,0,0,165,93.76Z"/><path class="cls-3" d="M110.35,71.62a3.36,3.36,0,0,0-4.7,0l-39.33,39a3.3,3.3,0,0,0-1,2.33V150.5a3,3,0,0,0,3,3H97V123.58h22V153.5h28.66a3,3,0,0,0,3-3V113a3.28,3.28,0,0,0-1-2.33Z"/></g></g></svg>