<svg xmlns="http://www.w3.org/2000/svg" viewBox="0 0 131.59 131.59"><defs><style>.cls-1{opacity:0;}.cls-2{opacity:0.18;}.cls-3{fill:#fff;}</style></defs><g id="Слой_2" data-name="Слой 2"><g id="Settings"><g class="cls-1"><circle cx="65.79" cy="65.79" r="65.79"/></g><g class="cls-2"><path d="M21.67,71.56h6.12a2.3,2.3,0,0,0,2.29-2.3A34.4,34.4,0,0,1,85.36,42a35.41,35.41,0,0,1,5.39,5.12l-11.29-2A2.29,2.29,0,0,0,76.81,47l-1.07,6a2.3,2.3,0,0,0,1.86,2.66l27.09,4.78a2.69,2.69,0,0,0,.4,0A2.26,2.26,0,0,0,106.4,60a2.31,2.31,0,0,0,.95-1.48l4.78-27.09a2.29,2.29,0,0,0-1.86-2.66l-6-1.06a2.28,2.28,0,0,0-2.65,1.86l-2,11.4a45.41,45.41,0,0,0-7.71-7.53,45.08,45.08,0,0,0-72.49,35.8,2.29,2.29,0,0,0,2.29,2.29Z"/><path d="M111.54,70.7a2.29,2.29,0,0,0-1.62-.67H103.8a2.3,2.3,0,0,0-2.29,2.3,34.4,34.4,0,0,1-55.28,27.3,35,35,0,0,1-5.39-5.12l11.29,2a2.31,2.31,0,0,0,1.71-.38,2.26,2.26,0,0,0,.94-1.48l1.06-6A2.29,2.29,0,0,0,54,86L26.9,81.18A2.29,2.29,0,0,0,24.24,83l-4.78,27.09a2.28,2.28,0,0,0,1.86,2.65l6,1.07a2.69,2.69,0,0,0,.4,0A2.28,2.28,0,0,0,30,112l2-11.4a45.08,45.08,0,0,0,80.2-28.27A2.29,2.29,0,0,0,111.54,70.7Z"/></g><path class="cls-3" d="M21.67,66.56h6.12a2.3,2.3,0,0,0,2.29-2.3A34.4,34.4,0,0,1,85.36,37a35.41,35.41,0,0,1,5.39,5.12l-11.29-2A2.29,2.29,0,0,0,76.81,42l-1.07,6a2.3,2.3,0,0,0,1.86,2.66l27.09,4.78a2.69,2.69,0,0,0,.4,0A2.26,2.26,0,0,0,106.4,55a2.31,2.31,0,0,0,.95-1.48l4.78-27.09a2.29,2.29,0,0,0-1.86-2.66l-6-1.06a2.28,2.28,0,0,0-2.65,1.86l-2,11.4a45.41,45.41,0,0,0-7.71-7.53,45.08,45.08,0,0,0-72.49,35.8,2.29,2.29,0,0,0,2.29,2.29Z"/><path class="cls-3" d="M111.54,65.7a2.29,2.29,0,0,0-1.62-.67H103.8a2.3,2.3,0,0,0-2.29,2.3,34.4,34.4,0,0,1-55.28,27.3,35,35,0,0,1-5.39-5.12l11.29,2a2.31,2.31,0,0,0,1.71-.38,2.26,2.26,0,0,0,.94-1.48l1.06-6A2.29,2.29,0,0,0,54,81L26.9,76.18A2.29,2.29,0,0,0,24.24,78l-4.78,27.09a2.28,2.28,0,0,0,1.86,2.65l6,1.07a2.69,2.69,0,0,0,.4,0A2.28,2.28,0,0,0,30,107l2-11.4a45.08,45.08,0,0,0,80.2-28.27A2.29,2.29,0,0,0,111.54,65.7Z"/></g></g></svg>